<svg xmlns="http://www.w3.org/2000/svg" xmlns:xlink="http://www.w3.org/1999/xlink" width="1488" zoomAndPan="magnify" viewBox="0 0 1116 665.999997" height="888" preserveAspectRatio="xMidYMid meet" version="1.0"><defs><g></g><clipPath id="51f9e82c8f"><rect x="0" width="325" y="0" height="240"></rect></clipPath><clipPath id="c7e7ea1bc0"><rect x="0" width="146" y="0" height="240"></rect></clipPath><clipPath id="768df464ef"><path d="M 0.28125 181 L 162 181 L 162 421 L 0.28125 421 Z M 0.28125 181 " clip-rule="nonzero"></path></clipPath><clipPath id="2266139d80"><rect x="0" width="162" y="0" height="240"></rect></clipPath><clipPath id="8de3ca46ec"><rect x="0" width="149" y="0" height="267"></rect></clipPath><clipPath id="05dc07e6c1"><rect x="0" width="210" y="0" height="211"></rect></clipPath><clipPath id="db24b455cf"><rect x="0" width="983" y="0" height="657"></rect></clipPath></defs><g transform="matrix(1, 0, 0, 1, 77, 4)"><g clip-path="url(#db24b455cf)"><g transform="matrix(1, 0, 0, 1, 306, 181)"><g clip-path="url(#51f9e82c8f)"><g fill="#000000" fill-opacity="1"><g transform="translate(0.170239, 193.741067)"><g><path d="M 52.53125 -92.15625 L 78.546875 -92.15625 C 86.828125 -92.15625 93.3125 -94.34375 98 -98.71875 C 102.695312 -103.09375 105.046875 -108.941406 105.046875 -116.265625 C 105.046875 -123.753906 102.695312 -129.6875 98 -134.0625 C 93.3125 -138.4375 86.828125 -140.625 78.546875 -140.625 L 52.53125 -140.625 Z M 82.609375 -63.75 L 52.28125 -63.75 L 52.28125 0 L 19.34375 0 L 19.34375 -169.28125 L 82.609375 -169.28125 C 93.742188 -169.28125 103.488281 -167.007812 111.84375 -162.46875 C 120.207031 -157.9375 126.695312 -151.691406 131.3125 -143.734375 C 135.925781 -135.773438 138.234375 -126.703125 138.234375 -116.515625 C 138.234375 -106.328125 135.925781 -97.253906 131.3125 -89.296875 C 126.695312 -81.335938 120.207031 -75.085938 111.84375 -70.546875 C 103.488281 -66.015625 93.742188 -63.75 82.609375 -63.75 Z M 82.609375 -63.75 "></path></g></g></g><g fill="#000000" fill-opacity="1"><g transform="translate(144.852506, 193.741067)"><g><path d="M 159.25 0 L 126.0625 0 L 126.0625 -70.1875 L 52.28125 -70.1875 L 52.28125 0 L 19.34375 0 L 19.34375 -169.28125 L 52.28125 -169.28125 L 52.28125 -101.234375 L 126.0625 -101.234375 L 126.0625 -169.28125 L 159.25 -169.28125 Z M 159.25 0 "></path></g></g></g></g></g><g transform="matrix(1, 0, 0, 1, 816, 181)"><g clip-path="url(#c7e7ea1bc0)"><g fill="#000000" fill-opacity="1"><g transform="translate(0.978164, 193.741067)"><g><path d="M 133.21875 -128.921875 L 103.625 -119.859375 C 103.144531 -123.035156 101.828125 -126.453125 99.671875 -130.109375 C 97.523438 -133.773438 94.300781 -136.960938 90 -139.671875 C 85.707031 -142.378906 79.976562 -143.734375 72.8125 -143.734375 C 64.851562 -143.734375 58.445312 -141.539062 53.59375 -137.15625 C 48.738281 -132.78125 46.3125 -127.804688 46.3125 -122.234375 C 46.3125 -117.617188 47.820312 -113.597656 50.84375 -110.171875 C 53.875 -106.753906 58.492188 -104.410156 64.703125 -103.140625 L 88.34375 -98.609375 C 103.78125 -95.578125 115.515625 -89.484375 123.546875 -80.328125 C 131.585938 -71.179688 135.609375 -60.640625 135.609375 -48.703125 C 135.609375 -40.109375 133.257812 -31.789062 128.5625 -23.75 C 123.875 -15.71875 116.992188 -9.15625 107.921875 -4.0625 C 98.847656 1.03125 87.703125 3.578125 74.484375 3.578125 C 63.347656 3.578125 53.679688 1.988281 45.484375 -1.1875 C 37.285156 -4.375 30.476562 -8.59375 25.0625 -13.84375 C 19.65625 -19.09375 15.476562 -24.820312 12.53125 -31.03125 C 9.59375 -37.238281 7.800781 -43.367188 7.15625 -49.421875 L 37.71875 -57.53125 C 38.195312 -51.96875 39.828125 -46.757812 42.609375 -41.90625 C 45.398438 -37.050781 49.460938 -33.148438 54.796875 -30.203125 C 60.128906 -27.253906 66.773438 -25.78125 74.734375 -25.78125 C 83.640625 -25.78125 90.441406 -27.769531 95.140625 -31.75 C 99.835938 -35.726562 102.1875 -40.664062 102.1875 -46.5625 C 102.1875 -51.488281 100.394531 -55.742188 96.8125 -59.328125 C 93.226562 -62.910156 88.175781 -65.335938 81.65625 -66.609375 L 58.015625 -71.390625 C 44.484375 -74.085938 33.695312 -79.65625 25.65625 -88.09375 C 17.625 -96.53125 13.609375 -107.117188 13.609375 -119.859375 C 13.609375 -129.878906 16.3125 -138.90625 21.71875 -146.9375 C 27.132812 -154.976562 34.296875 -161.304688 43.203125 -165.921875 C 52.117188 -170.546875 61.910156 -172.859375 72.578125 -172.859375 C 82.921875 -172.859375 91.710938 -171.503906 98.953125 -168.796875 C 106.203125 -166.085938 112.171875 -162.503906 116.859375 -158.046875 C 121.554688 -153.597656 125.21875 -148.828125 127.84375 -143.734375 C 130.476562 -138.640625 132.269531 -133.703125 133.21875 -128.921875 Z M 133.21875 -128.921875 "></path></g></g></g></g></g><g clip-path="url(#768df464ef)"><g transform="matrix(1, 0, 0, 1, 0, 181)"><g clip-path="url(#2266139d80)"><g fill="#000000" fill-opacity="1"><g transform="translate(0.474171, 193.741067)"><g><path d="M 155.421875 -169.28125 L 100.03125 -84.515625 L 155.671875 0 L 115.796875 0 L 79.265625 -58.5 L 42.5 0 L 3.8125 0 L 59.453125 -84.75 L 4.0625 -169.28125 L 43.6875 -169.28125 L 79.984375 -110.78125 L 116.984375 -169.28125 Z M 155.421875 -169.28125 "></path></g></g></g></g></g></g><g transform="matrix(1, 0, 0, 1, 160, 168)"><g clip-path="url(#8de3ca46ec)"><g fill="#000000" fill-opacity="1"><g transform="translate(0.214327, 214.946145)"><g><path d="M 56.890625 -76.5625 L 40.671875 -102.078125 L 85.875 -140.890625 L 10.375 -140.890625 L 10.375 -172.53125 L 132.390625 -172.53125 L 132.390625 -143.03125 L 87.734375 -105.8125 C 96.410156 -105.457031 104.5625 -103.109375 112.1875 -98.765625 C 119.8125 -94.421875 125.96875 -88.394531 130.65625 -80.6875 C 135.351562 -72.976562 137.703125 -63.804688 137.703125 -53.171875 C 137.703125 -43.242188 135.085938 -33.9375 129.859375 -25.25 C 124.628906 -16.570312 117.097656 -9.53125 107.265625 -4.125 C 97.429688 1.28125 85.515625 3.984375 71.515625 3.984375 C 58.222656 3.984375 46.703125 1.414062 36.953125 -3.71875 C 27.203125 -8.863281 19.578125 -15.644531 14.078125 -24.0625 C 8.585938 -32.476562 5.488281 -41.472656 4.78125 -51.046875 L 40.140625 -57.953125 C 40.492188 -49.265625 43.550781 -42.039062 49.3125 -36.28125 C 55.070312 -30.519531 62.472656 -27.640625 71.515625 -27.640625 C 80.722656 -27.640625 87.894531 -30.207031 93.03125 -35.34375 C 98.175781 -40.488281 100.75 -46.609375 100.75 -53.703125 C 100.75 -61.847656 98.132812 -68.132812 92.90625 -72.5625 C 87.675781 -77 80.898438 -79.21875 72.578125 -79.21875 C 68.859375 -79.21875 65.800781 -78.953125 63.40625 -78.421875 C 61.007812 -77.890625 58.835938 -77.269531 56.890625 -76.5625 Z M 56.890625 -76.5625 "></path></g></g></g></g></g><g transform="matrix(1, 0, 0, 1, 610, 194)"><g clip-path="url(#05dc07e6c1)"><g fill="#000000" fill-opacity="1"><g transform="translate(0.605947, 170.934513)"><g><path d="M 126.300781 -100.089844 L 103.597656 -169.429688 L 102.773438 -169.429688 L 80.074219 -100.089844 L 7.84375 -100.089844 L 7.84375 -99.265625 L 66.246094 -56.957031 L 43.339844 12.796875 L 43.957031 13 L 103.1875 -29.925781 L 162.414062 13 L 163.035156 12.796875 L 140.125 -56.957031 L 198.53125 -99.265625 L 198.53125 -100.089844 Z M 126.300781 -100.089844 "></path></g></g></g></g></g><path stroke-linecap="butt" transform="matrix(1.111933, 0, 0, 1.111933, 25.424187, 398.896339)" fill="none" stroke-linejoin="miter" d="M 2.000346 14.998997 L 2.000346 23.753459 C 2.000346 26.07557 2.920759 28.302829 4.564855 29.946925 C 6.205438 31.587508 8.432697 32.511434 10.754808 32.511434 L 90.662108 32.511434 C 92.984218 32.511434 95.211477 31.587508 96.855573 29.946925 C 98.496157 28.302829 99.420083 26.07557 99.420083 23.753459 L 99.420083 14.998997 " stroke="#000000" stroke-width="4" stroke-opacity="1" stroke-miterlimit="4"></path><path stroke-linecap="round" transform="matrix(1.111933, 0, 0, 1.111933, 25.424187, 398.896339)" fill-opacity="1" fill="#000000" fill-rule="nonzero" stroke-linejoin="round" d="M 2.000346 2.000799 C 5.31313 2.000799 8.000595 4.684752 8.000595 8.001049 C 8.000595 11.313833 5.31313 14.001298 2.000346 14.001298 C -1.312438 14.001298 -3.999904 11.313833 -3.999904 8.001049 C -3.999904 4.684752 -1.312438 2.000799 2.000346 2.000799 " stroke="#000000" stroke-width="4" stroke-opacity="1" stroke-miterlimit="4"></path><path stroke-linecap="round" transform="matrix(1.111933, 0, 0, 1.111933, 25.424187, 398.896339)" fill-opacity="1" fill="#000000" fill-rule="nonzero" stroke-linejoin="round" d="M 99.420083 2.000799 C 102.732867 2.000799 105.420332 4.684752 105.420332 8.001049 C 105.420332 11.313833 102.732867 14.001298 99.420083 14.001298 C 96.103786 14.001298 93.419834 11.313833 93.419834 8.001049 C 93.419834 4.684752 96.103786 2.000799 99.420083 2.000799 " stroke="#000000" stroke-width="4" stroke-opacity="1" stroke-miterlimit="4"></path><path stroke-linecap="butt" transform="matrix(1.111933, 0, 0, 1.111933, 175.004767, 137.116761)" fill="none" stroke-linejoin="miter" d="M 2.001651 26.379699 L 2.001651 14.189497 C 2.001651 10.957513 3.283906 7.85551 5.570886 5.572043 C 7.857866 3.285063 10.956356 1.999295 14.18834 1.999295 L 87.227673 1.999295 C 90.463171 1.999295 93.56166 3.285063 95.84864 5.572043 C 98.135621 7.85551 99.417875 10.957513 99.417875 14.189497 L 99.417875 26.379699 " stroke="#000000" stroke-width="4" stroke-opacity="1" stroke-miterlimit="4"></path><path stroke-linecap="round" transform="matrix(1.111933, 0, 0, 1.111933, 175.004767, 137.116761)" fill-opacity="1" fill="#000000" fill-rule="nonzero" stroke-linejoin="round" d="M 2.001651 37.378985 L -3.998598 31.378736 L 2.001651 25.378486 L 7.998387 31.378736 Z M 2.001651 37.378985 " stroke="#000000" stroke-width="4" stroke-opacity="1" stroke-miterlimit="4"></path><path stroke-linecap="round" transform="matrix(1.111933, 0, 0, 1.111933, 175.004767, 137.116761)" fill-opacity="1" fill="#000000" fill-rule="nonzero" stroke-linejoin="round" d="M 99.417875 37.378985 L 105.418124 31.378736 L 99.417875 25.378486 L 93.417626 31.378736 Z M 99.417875 37.378985 " stroke="#000000" stroke-width="4" stroke-opacity="1" stroke-miterlimit="4"></path><path stroke-linecap="butt" transform="matrix(1.111933, 0, 0, 1.111933, 339.756174, 403.344081)" fill="none" stroke-linejoin="miter" d="M 2.000385 15.000325 L 2.000385 21.752362 C 2.000385 25.483196 5.021588 28.504399 8.752422 28.504399 L 222.24958 28.504399 C 225.976901 28.504399 229.001617 25.483196 229.001617 21.752362 L 229.001617 15.000325 " stroke="#000000" stroke-width="4" stroke-opacity="1" stroke-miterlimit="4"></path><path stroke-linecap="round" transform="matrix(1.111933, 0, 0, 1.111933, 339.756174, 403.344081)" fill-opacity="1" fill="#000000" fill-rule="nonzero" stroke-linejoin="round" d="M 2.000385 1.998614 C 5.313169 1.998614 8.000634 4.686079 8.000634 7.998863 C 8.000634 11.31516 5.313169 13.999113 2.000385 13.999113 C -1.312399 13.999113 -3.999864 11.31516 -3.999864 7.998863 C -3.999864 4.686079 -1.312399 1.998614 2.000385 1.998614 " stroke="#000000" stroke-width="4" stroke-opacity="1" stroke-miterlimit="4"></path><path stroke-linecap="round" transform="matrix(1.111933, 0, 0, 1.111933, 339.756174, 403.344081)" fill-opacity="1" fill="#000000" fill-rule="nonzero" stroke-linejoin="round" d="M 229.001617 1.998614 C 232.314401 1.998614 235.001866 4.686079 235.001866 7.998863 C 235.001866 11.31516 232.314401 13.999113 229.001617 13.999113 C 225.68532 13.999113 223.001368 11.31516 223.001368 7.998863 C 223.001368 4.686079 225.68532 1.998614 229.001617 1.998614 " stroke="#000000" stroke-width="4" stroke-opacity="1" stroke-miterlimit="4"></path><path stroke-linecap="butt" transform="matrix(1.111933, 0, 0, 1.111933, 659.022777, 137.116761)" fill="none" stroke-linejoin="miter" d="M 1.999506 19.747105 L 1.999506 10.8732 C 1.999506 8.519472 2.933972 6.264109 4.599146 4.598935 C 6.264321 2.93376 8.519684 1.999295 10.873411 1.999295 L 90.545339 1.999295 C 92.899067 1.999295 95.15443 2.93376 96.819604 4.598935 C 98.484779 6.264109 99.419244 8.519472 99.419244 10.8732 L 99.419244 19.747105 " stroke="#000000" stroke-width="4" stroke-opacity="1" stroke-miterlimit="4"></path><path stroke-linecap="round" transform="matrix(1.111933, 0, 0, 1.111933, 659.022777, 137.116761)" fill-opacity="1" fill="#000000" fill-rule="nonzero" stroke-linejoin="round" d="M 1.999506 30.746391 L -4.000743 24.746142 L 1.999506 18.745892 L 7.999756 24.746142 Z M 1.999506 30.746391 " stroke="#000000" stroke-width="4" stroke-opacity="1" stroke-miterlimit="4"></path><path stroke-linecap="round" transform="matrix(1.111933, 0, 0, 1.111933, 659.022777, 137.116761)" fill-opacity="1" fill="#000000" fill-rule="nonzero" stroke-linejoin="round" d="M 99.419244 30.746391 L 105.419493 24.746142 L 99.419244 18.745892 L 93.418994 24.746142 Z M 99.419244 30.746391 " stroke="#000000" stroke-width="4" stroke-opacity="1" stroke-miterlimit="4"></path><path stroke-linecap="butt" transform="matrix(1.111933, 0, 0, 1.111933, 839.517888, 406.892457)" fill="none" stroke-linejoin="miter" d="M 2.00039 14.998975 L 2.00039 20.159611 C 2.00039 21.526179 2.544909 22.840051 3.510991 23.806133 C 4.477073 24.775728 5.790945 25.320247 7.161026 25.320247 L 94.259491 25.320247 C 95.626058 25.320247 96.93993 24.775728 97.906012 23.806133 C 98.875608 22.840051 99.420127 21.526179 99.420127 20.159611 L 99.420127 14.998975 " stroke="#000000" stroke-width="4" stroke-opacity="1" stroke-miterlimit="4"></path><path stroke-linecap="round" transform="matrix(1.111933, 0, 0, 1.111933, 839.517888, 406.892457)" fill-opacity="1" fill="#000000" fill-rule="nonzero" stroke-linejoin="round" d="M 2.00039 2.000777 C 5.313174 2.000777 8.000639 4.68473 8.000639 8.001027 C 8.000639 11.313811 5.313174 14.001276 2.00039 14.001276 C -1.312394 14.001276 -3.99986 11.313811 -3.99986 8.001027 C -3.99986 4.68473 -1.312394 2.000777 2.00039 2.000777 " stroke="#000000" stroke-width="4" stroke-opacity="1" stroke-miterlimit="4"></path><path stroke-linecap="round" transform="matrix(1.111933, 0, 0, 1.111933, 839.517888, 406.892457)" fill-opacity="1" fill="#000000" fill-rule="nonzero" stroke-linejoin="round" d="M 99.420127 2.000777 C 102.732911 2.000777 105.420376 4.68473 105.420376 8.001027 C 105.420376 11.313811 102.732911 14.001276 99.420127 14.001276 C 96.10383 14.001276 93.419878 11.313811 93.419878 8.001027 C 93.419878 4.68473 96.10383 2.000777 99.420127 2.000777 " stroke="#000000" stroke-width="4" stroke-opacity="1" stroke-miterlimit="4"></path><path stroke-linecap="butt" transform="matrix(0, 1.111933, -1.111933, 0, 84.029625, 425.941376)" fill="none" stroke-linejoin="miter" d="M 15.00065 2.000963 L 57.726078 2.000963 " stroke="#000000" stroke-width="4" stroke-opacity="1" stroke-miterlimit="4"></path><path stroke-linecap="round" transform="matrix(0, 1.111933, -1.111933, 0, 84.029625, 425.941376)" fill-opacity="1" fill="#000000" fill-rule="nonzero" stroke-linejoin="round" d="M 1.998939 2.000963 C 1.998939 -1.315334 4.686404 -3.999286 7.999188 -3.999286 C 11.311972 -3.999286 13.999438 -1.315334 13.999438 2.000963 C 13.999438 5.313747 11.311972 8.001213 7.999188 8.001213 C 4.686404 8.001213 1.998939 5.313747 1.998939 2.000963 " stroke="#000000" stroke-width="4" stroke-opacity="1" stroke-miterlimit="4"></path><path stroke-linecap="round" transform="matrix(0, 1.111933, -1.111933, 0, 84.029625, 425.941376)" fill="none" stroke-linejoin="round" d="M 49.726917 -3.999286 L 57.726078 2.000963 L 49.726917 8.001213 " stroke="#000000" stroke-width="4" stroke-opacity="1" stroke-miterlimit="4"></path><path stroke-linecap="butt" transform="matrix(0, 1.111933, -1.111933, 0, 898.123245, 426.850616)" fill="none" stroke-linejoin="miter" d="M 15.001474 2.000847 L 57.726902 2.000847 " stroke="#000000" stroke-width="4" stroke-opacity="1" stroke-miterlimit="4"></path><path stroke-linecap="round" transform="matrix(0, 1.111933, -1.111933, 0, 898.123245, 426.850616)" fill-opacity="1" fill="#000000" fill-rule="nonzero" stroke-linejoin="round" d="M 1.999763 2.000847 C 1.999763 -1.31545 4.687228 -3.999402 8.000012 -3.999402 C 11.312796 -3.999402 14.000262 -1.31545 14.000262 2.000847 C 14.000262 5.313631 11.312796 8.001096 8.000012 8.001096 C 4.687228 8.001096 1.999763 5.313631 1.999763 2.000847 " stroke="#000000" stroke-width="4" stroke-opacity="1" stroke-miterlimit="4"></path><path stroke-linecap="round" transform="matrix(0, 1.111933, -1.111933, 0, 898.123245, 426.850616)" fill="none" stroke-linejoin="round" d="M 49.724228 -3.999402 L 57.726902 2.000847 L 49.724228 8.001096 " stroke="#000000" stroke-width="4" stroke-opacity="1" stroke-miterlimit="4"></path><path stroke-linecap="butt" transform="matrix(0, -1.111933, 1.111933, 0, 713.180454, 148.13476)" fill="none" stroke-linejoin="miter" d="M 12.99995 2.001736 L 57.72429 2.001736 " stroke="#000000" stroke-width="4" stroke-opacity="1" stroke-miterlimit="4"></path><path stroke-linecap="round" transform="matrix(0, -1.111933, 1.111933, 0, 713.180454, 148.13476)" fill-opacity="1" fill="#000000" fill-rule="nonzero" stroke-linejoin="round" d="M 2.000664 2.001736 L 8.000913 -3.998513 L 14.001162 2.001736 L 8.000913 7.998472 Z M 2.000664 2.001736 " stroke="#000000" stroke-width="4" stroke-opacity="1" stroke-miterlimit="4"></path><path stroke-linecap="round" transform="matrix(0, -1.111933, 1.111933, 0, 713.180454, 148.13476)" fill="none" stroke-linejoin="round" d="M 49.725128 -3.998513 L 57.72429 2.001736 L 49.725128 7.998472 " stroke="#000000" stroke-width="4" stroke-opacity="1" stroke-miterlimit="4"></path><path stroke-linecap="butt" transform="matrix(0, -1.111933, 1.111933, 0, 226.938602, 148.13476)" fill="none" stroke-linejoin="miter" d="M 12.99995 2.001434 L 57.72429 2.001434 " stroke="#000000" stroke-width="4" stroke-opacity="1" stroke-miterlimit="4"></path><path stroke-linecap="round" transform="matrix(0, -1.111933, 1.111933, 0, 226.938602, 148.13476)" fill-opacity="1" fill="#000000" fill-rule="nonzero" stroke-linejoin="round" d="M 2.000664 2.001434 L 8.000913 -3.998815 L 14.001162 2.001434 L 8.000913 8.001683 Z M 2.000664 2.001434 " stroke="#000000" stroke-width="4" stroke-opacity="1" stroke-miterlimit="4"></path><path stroke-linecap="round" transform="matrix(0, -1.111933, 1.111933, 0, 226.938602, 148.13476)" fill="none" stroke-linejoin="round" d="M 49.725128 -3.998815 L 57.72429 2.001434 L 49.725128 8.001683 " stroke="#000000" stroke-width="4" stroke-opacity="1" stroke-miterlimit="4"></path><path stroke-linecap="butt" transform="matrix(0, 1.111933, -1.111933, 0, 470.402009, 425.943968)" fill="none" stroke-linejoin="miter" d="M 14.998319 1.998611 L 132.684706 1.998611 " stroke="#000000" stroke-width="4" stroke-opacity="1" stroke-miterlimit="4"></path><path stroke-linecap="round" transform="matrix(0, 1.111933, -1.111933, 0, 470.402009, 425.943968)" fill-opacity="1" fill="#000000" fill-rule="nonzero" stroke-linejoin="round" d="M 2.000121 1.998611 C 2.000121 -1.314173 4.687586 -4.001638 8.00037 -4.001638 C 11.313154 -4.001638 14.00062 -1.314173 14.00062 1.998611 C 14.00062 5.314908 11.313154 7.99886 8.00037 7.99886 C 4.687586 7.99886 2.000121 5.314908 2.000121 1.998611 " stroke="#000000" stroke-width="4" stroke-opacity="1" stroke-miterlimit="4"></path><path stroke-linecap="round" transform="matrix(0, 1.111933, -1.111933, 0, 470.402009, 425.943968)" fill="none" stroke-linejoin="round" d="M 124.682032 -4.001638 L 132.684706 1.998611 L 124.682032 7.99886 " stroke="#000000" stroke-width="4" stroke-opacity="1" stroke-miterlimit="4"></path><g fill="#000000" fill-opacity="1"><g transform="translate(59.912692, 525.084892)"><g><path d="M 10.96875 0.421875 C 9.164062 0.421875 7.617188 0.0625 6.328125 -0.65625 C 5.035156 -1.382812 4.035156 -2.414062 3.328125 -3.75 C 2.628906 -5.082031 2.28125 -6.675781 2.28125 -8.53125 L 2.28125 -20.75 L 7 -20.75 L 7 -8.859375 C 7 -5.660156 8.320312 -4.0625 10.96875 -4.0625 C 13.613281 -4.0625 14.9375 -5.660156 14.9375 -8.859375 L 14.9375 -20.75 L 19.65625 -20.75 L 19.65625 -8.53125 C 19.65625 -6.675781 19.300781 -5.082031 18.59375 -3.75 C 17.894531 -2.414062 16.898438 -1.382812 15.609375 -0.65625 C 14.316406 0.0625 12.769531 0.421875 10.96875 0.421875 Z M 10.96875 0.421875 "></path></g></g></g><g fill="#000000" fill-opacity="1"><g transform="translate(81.846187, 525.084892)"><g><path d="M 0.796875 0 L 7.859375 -10.609375 L 1.125 -20.75 L 6.515625 -20.75 L 9.015625 -16.890625 L 10.90625 -14.015625 L 15.328125 -20.75 L 20.6875 -20.75 L 13.984375 -10.640625 L 21.046875 0 L 15.5 0 L 12.65625 -4.390625 L 10.9375 -7.03125 L 9.1875 -4.390625 L 6.34375 0 Z M 0.796875 0 "></path></g></g></g><g fill="#000000" fill-opacity="1"><g transform="translate(4.107556, 560.666748)"><g><path d="M 2.484375 0 L 2.484375 -20.75 L 10.703125 -20.75 C 12.890625 -20.75 14.800781 -20.3125 16.4375 -19.4375 C 18.082031 -18.570312 19.359375 -17.359375 20.265625 -15.796875 C 21.179688 -14.234375 21.640625 -12.425781 21.640625 -10.375 C 21.640625 -8.300781 21.179688 -6.488281 20.265625 -4.9375 C 19.359375 -3.382812 18.082031 -2.171875 16.4375 -1.296875 C 14.800781 -0.429688 12.890625 0 10.703125 0 Z M 7.203125 -4.328125 L 10.609375 -4.328125 C 11.835938 -4.328125 12.914062 -4.578125 13.84375 -5.078125 C 14.769531 -5.585938 15.492188 -6.296875 16.015625 -7.203125 C 16.546875 -8.109375 16.8125 -9.164062 16.8125 -10.375 C 16.8125 -11.601562 16.546875 -12.664062 16.015625 -13.5625 C 15.492188 -14.457031 14.765625 -15.15625 13.828125 -15.65625 C 12.890625 -16.164062 11.796875 -16.421875 10.546875 -16.421875 L 7.203125 -16.421875 Z M 7.203125 -4.328125 "></path></g></g></g><g fill="#000000" fill-opacity="1"><g transform="translate(26.989526, 560.666748)"><g><path d="M 2.484375 0 L 2.484375 -20.75 L 16.125 -20.75 L 16.125 -16.78125 L 7.171875 -16.78125 L 7.171875 -12.484375 L 15.328125 -12.484375 L 15.328125 -8.53125 L 7.171875 -8.53125 L 7.171875 -4 L 16.453125 -4 L 16.453125 0 Z M 2.484375 0 "></path></g></g></g><g fill="#000000" fill-opacity="1"><g transform="translate(44.951275, 560.666748)"><g><path d="M 9.71875 0.421875 C 7.976562 0.421875 6.476562 0.132812 5.21875 -0.4375 C 3.96875 -1.007812 3 -1.820312 2.3125 -2.875 C 1.632812 -3.9375 1.296875 -5.179688 1.296875 -6.609375 L 5.921875 -6.609375 C 5.921875 -5.617188 6.257812 -4.847656 6.9375 -4.296875 C 7.625 -3.742188 8.539062 -3.46875 9.6875 -3.46875 C 10.675781 -3.46875 11.457031 -3.660156 12.03125 -4.046875 C 12.601562 -4.429688 12.890625 -4.96875 12.890625 -5.65625 C 12.890625 -6.394531 12.539062 -6.988281 11.84375 -7.4375 C 11.15625 -7.894531 10.082031 -8.28125 8.625 -8.59375 C 6.195312 -9.101562 4.398438 -9.882812 3.234375 -10.9375 C 2.066406 -11.988281 1.484375 -13.351562 1.484375 -15.03125 C 1.484375 -16.925781 2.171875 -18.421875 3.546875 -19.515625 C 4.929688 -20.609375 6.820312 -21.15625 9.21875 -21.15625 C 10.851562 -21.15625 12.273438 -20.875 13.484375 -20.3125 C 14.691406 -19.75 15.625 -18.957031 16.28125 -17.9375 C 16.945312 -16.925781 17.28125 -15.71875 17.28125 -14.3125 L 12.75 -14.3125 C 12.75 -15.238281 12.441406 -15.96875 11.828125 -16.5 C 11.210938 -17.039062 10.363281 -17.3125 9.28125 -17.3125 C 8.289062 -17.3125 7.507812 -17.117188 6.9375 -16.734375 C 6.363281 -16.347656 6.078125 -15.804688 6.078125 -15.109375 C 6.078125 -14.484375 6.390625 -13.953125 7.015625 -13.515625 C 7.648438 -13.078125 8.757812 -12.671875 10.34375 -12.296875 C 12.9375 -11.679688 14.804688 -10.859375 15.953125 -9.828125 C 17.097656 -8.804688 17.671875 -7.476562 17.671875 -5.84375 C 17.671875 -3.882812 16.960938 -2.347656 15.546875 -1.234375 C 14.128906 -0.128906 12.1875 0.421875 9.71875 0.421875 Z M 9.71875 0.421875 "></path></g></g></g><g fill="#000000" fill-opacity="1"><g transform="translate(63.950423, 560.666748)"><g><path d="M 2.484375 0 L 2.484375 -20.75 L 7.203125 -20.75 L 7.203125 0 Z M 2.484375 0 "></path></g></g></g><g fill="#000000" fill-opacity="1"><g transform="translate(73.642662, 560.666748)"><g><path d="M 12.15625 0.421875 C 10.039062 0.421875 8.160156 -0.0351562 6.515625 -0.953125 C 4.878906 -1.878906 3.597656 -3.148438 2.671875 -4.765625 C 1.742188 -6.390625 1.28125 -8.257812 1.28125 -10.375 C 1.28125 -12.488281 1.738281 -14.351562 2.65625 -15.96875 C 3.570312 -17.59375 4.84375 -18.863281 6.46875 -19.78125 C 8.101562 -20.695312 9.96875 -21.15625 12.0625 -21.15625 C 13.738281 -21.15625 15.285156 -20.859375 16.703125 -20.265625 C 18.128906 -19.679688 19.34375 -18.847656 20.34375 -17.765625 C 21.34375 -16.691406 22.050781 -15.421875 22.46875 -13.953125 L 17.40625 -13.953125 C 16.90625 -14.867188 16.195312 -15.578125 15.28125 -16.078125 C 14.363281 -16.578125 13.320312 -16.828125 12.15625 -16.828125 C 10.945312 -16.828125 9.878906 -16.550781 8.953125 -16 C 8.023438 -15.445312 7.296875 -14.6875 6.765625 -13.71875 C 6.242188 -12.75 5.984375 -11.632812 5.984375 -10.375 C 5.984375 -9.125 6.238281 -8.015625 6.75 -7.046875 C 7.269531 -6.085938 7.992188 -5.320312 8.921875 -4.75 C 9.847656 -4.1875 10.945312 -3.90625 12.21875 -3.90625 C 13.738281 -3.90625 15 -4.289062 16 -5.0625 C 17.007812 -5.832031 17.664062 -6.851562 17.96875 -8.125 L 11.234375 -8.125 L 11.234375 -11.765625 L 22.9375 -11.765625 C 23.0625 -9.984375 22.890625 -8.351562 22.421875 -6.875 C 21.960938 -5.394531 21.25 -4.101562 20.28125 -3 C 19.320312 -1.90625 18.15625 -1.0625 16.78125 -0.46875 C 15.414062 0.125 13.875 0.421875 12.15625 0.421875 Z M 12.15625 0.421875 "></path></g></g></g><g fill="#000000" fill-opacity="1"><g transform="translate(97.828782, 560.666748)"><g><path d="M 2.484375 0 L 2.484375 -20.75 L 6.484375 -20.75 L 15.65625 -8.125 L 15.65625 -20.75 L 20.328125 -20.75 L 20.328125 0 L 16.328125 0 L 7.171875 -12.71875 L 7.171875 0 Z M 2.484375 0 "></path></g></g></g><g fill="#000000" fill-opacity="1"><g transform="translate(120.651471, 560.666748)"><g><path d="M 2.484375 0 L 2.484375 -20.75 L 16.125 -20.75 L 16.125 -16.78125 L 7.171875 -16.78125 L 7.171875 -12.484375 L 15.328125 -12.484375 L 15.328125 -8.53125 L 7.171875 -8.53125 L 7.171875 -4 L 16.453125 -4 L 16.453125 0 Z M 2.484375 0 "></path></g></g></g><g fill="#000000" fill-opacity="1"><g transform="translate(138.61322, 560.666748)"><g><path d="M 2.484375 0 L 2.484375 -20.75 L 11.359375 -20.75 C 12.929688 -20.75 14.300781 -20.460938 15.46875 -19.890625 C 16.632812 -19.316406 17.535156 -18.492188 18.171875 -17.421875 C 18.804688 -16.359375 19.125 -15.085938 19.125 -13.609375 C 19.125 -12.085938 18.773438 -10.773438 18.078125 -9.671875 C 17.390625 -8.578125 16.421875 -7.753906 15.171875 -7.203125 L 19.46875 0 L 14.015625 0 L 10.3125 -6.46875 L 7.203125 -6.46875 L 7.203125 0 Z M 7.140625 -10.4375 L 10.734375 -10.4375 C 11.898438 -10.4375 12.789062 -10.707031 13.40625 -11.25 C 14.03125 -11.789062 14.34375 -12.566406 14.34375 -13.578125 C 14.34375 -14.585938 14.03125 -15.363281 13.40625 -15.90625 C 12.789062 -16.445312 11.898438 -16.71875 10.734375 -16.71875 L 7.140625 -16.71875 Z M 7.140625 -10.4375 "></path></g></g></g><g fill="#000000" fill-opacity="1"><g transform="translate(206.632383, 67.163742)"><g><path d="M 19.09375 -3.328125 L 2.921875 -9.859375 L 2.921875 -14.421875 L 19.09375 -20.90625 L 19.09375 -15.125 L 14.265625 -13.421875 L 10.828125 -12.125 L 14.265625 -10.828125 L 19.09375 -9.125 Z M 19.09375 -3.328125 "></path></g></g></g><g fill="#000000" fill-opacity="1"><g transform="translate(228.645165, 67.163742)"><g><path d="M 11.453125 0.515625 C 8.535156 0.515625 6.207031 -0.253906 4.46875 -1.796875 C 2.726562 -3.335938 1.796875 -5.441406 1.671875 -8.109375 L 7.296875 -8.109375 C 7.347656 -7.046875 7.738281 -6.207031 8.46875 -5.59375 C 9.195312 -4.976562 10.164062 -4.671875 11.375 -4.671875 C 12.613281 -4.671875 13.597656 -5 14.328125 -5.65625 C 15.054688 -6.3125 15.421875 -7.179688 15.421875 -8.265625 C 15.421875 -9.347656 15.054688 -10.21875 14.328125 -10.875 C 13.597656 -11.53125 12.613281 -11.859375 11.375 -11.859375 L 6.8125 -11.859375 L 6.8125 -15.3125 L 12.3125 -20.859375 L 2.296875 -20.859375 L 2.296875 -25.9375 L 19.984375 -25.9375 L 19.984375 -21.9375 L 13.9375 -15.90625 C 16.082031 -15.582031 17.800781 -14.691406 19.09375 -13.234375 C 20.394531 -11.773438 21.046875 -9.96875 21.046875 -7.8125 C 21.046875 -6.132812 20.648438 -4.664062 19.859375 -3.40625 C 19.066406 -2.144531 17.953125 -1.175781 16.515625 -0.5 C 15.085938 0.175781 13.398438 0.515625 11.453125 0.515625 Z M 11.453125 0.515625 "></path></g></g></g><g fill="#000000" fill-opacity="1"><g transform="translate(638.997631, 31.581886)"><g><path d="M 12 0.421875 C 9.90625 0.421875 8.046875 -0.0351562 6.421875 -0.953125 C 4.804688 -1.878906 3.546875 -3.148438 2.640625 -4.765625 C 1.734375 -6.390625 1.28125 -8.257812 1.28125 -10.375 C 1.28125 -12.488281 1.734375 -14.351562 2.640625 -15.96875 C 3.546875 -17.59375 4.800781 -18.863281 6.40625 -19.78125 C 8.019531 -20.695312 9.875 -21.15625 11.96875 -21.15625 C 13.726562 -21.15625 15.335938 -20.816406 16.796875 -20.140625 C 18.265625 -19.472656 19.5 -18.523438 20.5 -17.296875 C 21.5 -16.078125 22.195312 -14.640625 22.59375 -12.984375 L 17.71875 -12.984375 C 17.320312 -14.128906 16.617188 -15.03125 15.609375 -15.6875 C 14.609375 -16.351562 13.445312 -16.6875 12.125 -16.6875 C 10.957031 -16.6875 9.914062 -16.421875 9 -15.890625 C 8.082031 -15.359375 7.363281 -14.613281 6.84375 -13.65625 C 6.332031 -12.707031 6.078125 -11.613281 6.078125 -10.375 C 6.078125 -9.125 6.332031 -8.023438 6.84375 -7.078125 C 7.363281 -6.128906 8.078125 -5.390625 8.984375 -4.859375 C 9.890625 -4.328125 10.925781 -4.0625 12.09375 -4.0625 C 13.457031 -4.0625 14.648438 -4.410156 15.671875 -5.109375 C 16.703125 -5.816406 17.4375 -6.757812 17.875 -7.9375 L 22.734375 -7.9375 C 22.398438 -6.257812 21.726562 -4.789062 20.71875 -3.53125 C 19.707031 -2.28125 18.457031 -1.304688 16.96875 -0.609375 C 15.476562 0.078125 13.820312 0.421875 12 0.421875 Z M 12 0.421875 "></path></g></g></g><g fill="#000000" fill-opacity="1"><g transform="translate(662.917, 31.581886)"><g><path d="M 2.484375 0 L 2.484375 -20.75 L 11.359375 -20.75 C 12.929688 -20.75 14.300781 -20.460938 15.46875 -19.890625 C 16.632812 -19.316406 17.535156 -18.492188 18.171875 -17.421875 C 18.804688 -16.359375 19.125 -15.085938 19.125 -13.609375 C 19.125 -12.085938 18.773438 -10.773438 18.078125 -9.671875 C 17.390625 -8.578125 16.421875 -7.753906 15.171875 -7.203125 L 19.46875 0 L 14.015625 0 L 10.3125 -6.46875 L 7.203125 -6.46875 L 7.203125 0 Z M 7.140625 -10.4375 L 10.734375 -10.4375 C 11.898438 -10.4375 12.789062 -10.707031 13.40625 -11.25 C 14.03125 -11.789062 14.34375 -12.566406 14.34375 -13.578125 C 14.34375 -14.585938 14.03125 -15.363281 13.40625 -15.90625 C 12.789062 -16.445312 11.898438 -16.71875 10.734375 -16.71875 L 7.140625 -16.71875 Z M 7.140625 -10.4375 "></path></g></g></g><g fill="#000000" fill-opacity="1"><g transform="translate(683.783456, 31.581886)"><g><path d="M 2.484375 0 L 2.484375 -20.75 L 16.125 -20.75 L 16.125 -16.78125 L 7.171875 -16.78125 L 7.171875 -12.484375 L 15.328125 -12.484375 L 15.328125 -8.53125 L 7.171875 -8.53125 L 7.171875 -4 L 16.453125 -4 L 16.453125 0 Z M 2.484375 0 "></path></g></g></g><g fill="#000000" fill-opacity="1"><g transform="translate(701.745205, 31.581886)"><g><path d="M 0.265625 0 L 8.5 -20.75 L 13.125 -20.75 L 21.375 0 L 16.328125 0 L 14.9375 -3.59375 L 6.703125 -3.59375 L 5.3125 0 Z M 7.90625 -7.296875 L 13.75 -7.296875 L 10.8125 -14.875 Z M 7.90625 -7.296875 "></path></g></g></g><g fill="#000000" fill-opacity="1"><g transform="translate(723.382291, 31.581886)"><g><path d="M 7.46875 0 L 7.46875 -16.328125 L 0.890625 -16.328125 L 0.890625 -20.75 L 18.765625 -20.75 L 18.765625 -16.328125 L 12.1875 -16.328125 L 12.1875 0 Z M 7.46875 0 "></path></g></g></g><g fill="#000000" fill-opacity="1"><g transform="translate(743.033522, 31.581886)"><g><path d="M 2.484375 0 L 2.484375 -20.75 L 7.203125 -20.75 L 7.203125 0 Z M 2.484375 0 "></path></g></g></g><g fill="#000000" fill-opacity="1"><g transform="translate(752.725761, 31.581886)"><g><path d="M 8.234375 0 L 0.265625 -20.75 L 5.328125 -20.75 L 8.09375 -13.375 L 10.578125 -6.78125 L 15.796875 -20.75 L 20.84375 -20.75 L 12.859375 0 Z M 8.234375 0 "></path></g></g></g><g fill="#000000" fill-opacity="1"><g transform="translate(773.829345, 31.581886)"><g><path d="M 2.484375 0 L 2.484375 -20.75 L 16.125 -20.75 L 16.125 -16.78125 L 7.171875 -16.78125 L 7.171875 -12.484375 L 15.328125 -12.484375 L 15.328125 -8.53125 L 7.171875 -8.53125 L 7.171875 -4 L 16.453125 -4 L 16.453125 0 Z M 2.484375 0 "></path></g></g></g><g fill="#000000" fill-opacity="1"><g transform="translate(647.806225, 67.163742)"><g><path d="M 12.328125 0.421875 C 10.171875 0.421875 8.257812 -0.0351562 6.59375 -0.953125 C 4.925781 -1.878906 3.625 -3.148438 2.6875 -4.765625 C 1.75 -6.390625 1.28125 -8.257812 1.28125 -10.375 C 1.28125 -12.488281 1.75 -14.351562 2.6875 -15.96875 C 3.625 -17.59375 4.925781 -18.863281 6.59375 -19.78125 C 8.257812 -20.695312 10.171875 -21.15625 12.328125 -21.15625 C 14.503906 -21.15625 16.421875 -20.695312 18.078125 -19.78125 C 19.742188 -18.863281 21.050781 -17.59375 22 -15.96875 C 22.945312 -14.351562 23.421875 -12.488281 23.421875 -10.375 C 23.421875 -8.101562 22.859375 -6.101562 21.734375 -4.375 C 20.617188 -2.644531 19.125 -1.375 17.25 -0.5625 L 17.484375 0 C 17.703125 0.476562 17.925781 0.835938 18.15625 1.078125 C 18.382812 1.328125 18.691406 1.5 19.078125 1.59375 C 19.460938 1.695312 19.96875 1.75 20.59375 1.75 L 22.234375 1.75 L 22.234375 5.390625 L 19.59375 5.390625 C 16.59375 5.390625 14.546875 4.109375 13.453125 1.546875 L 12.984375 0.390625 Z M 6.078125 -10.375 C 6.078125 -9.125 6.34375 -8.023438 6.875 -7.078125 C 7.40625 -6.128906 8.140625 -5.390625 9.078125 -4.859375 C 10.023438 -4.328125 11.109375 -4.0625 12.328125 -4.0625 C 13.578125 -4.0625 14.671875 -4.328125 15.609375 -4.859375 C 16.546875 -5.390625 17.273438 -6.128906 17.796875 -7.078125 C 18.316406 -8.023438 18.578125 -9.125 18.578125 -10.375 C 18.578125 -11.613281 18.316406 -12.707031 17.796875 -13.65625 C 17.273438 -14.613281 16.546875 -15.359375 15.609375 -15.890625 C 14.671875 -16.421875 13.578125 -16.6875 12.328125 -16.6875 C 11.109375 -16.6875 10.023438 -16.421875 9.078125 -15.890625 C 8.140625 -15.359375 7.40625 -14.613281 6.875 -13.65625 C 6.34375 -12.707031 6.078125 -11.613281 6.078125 -10.375 Z M 6.078125 -10.375 "></path></g></g></g><g fill="#000000" fill-opacity="1"><g transform="translate(672.496225, 67.163742)"><g><path d="M 10.96875 0.421875 C 9.164062 0.421875 7.617188 0.0625 6.328125 -0.65625 C 5.035156 -1.382812 4.035156 -2.414062 3.328125 -3.75 C 2.628906 -5.082031 2.28125 -6.675781 2.28125 -8.53125 L 2.28125 -20.75 L 7 -20.75 L 7 -8.859375 C 7 -5.660156 8.320312 -4.0625 10.96875 -4.0625 C 13.613281 -4.0625 14.9375 -5.660156 14.9375 -8.859375 L 14.9375 -20.75 L 19.65625 -20.75 L 19.65625 -8.53125 C 19.65625 -6.675781 19.300781 -5.082031 18.59375 -3.75 C 17.894531 -2.414062 16.898438 -1.382812 15.609375 -0.65625 C 14.316406 0.0625 12.769531 0.421875 10.96875 0.421875 Z M 10.96875 0.421875 "></path></g></g></g><g fill="#000000" fill-opacity="1"><g transform="translate(694.42972, 67.163742)"><g><path d="M 0.265625 0 L 8.5 -20.75 L 13.125 -20.75 L 21.375 0 L 16.328125 0 L 14.9375 -3.59375 L 6.703125 -3.59375 L 5.3125 0 Z M 7.90625 -7.296875 L 13.75 -7.296875 L 10.8125 -14.875 Z M 7.90625 -7.296875 "></path></g></g></g><g fill="#000000" fill-opacity="1"><g transform="translate(716.066806, 67.163742)"><g><path d="M 2.484375 0 L 2.484375 -20.75 L 7.203125 -20.75 L 7.203125 -4.421875 L 16.265625 -4.421875 L 16.265625 0 Z M 2.484375 0 "></path></g></g></g><g fill="#000000" fill-opacity="1"><g transform="translate(733.139361, 67.163742)"><g><path d="M 2.484375 0 L 2.484375 -20.75 L 7.203125 -20.75 L 7.203125 0 Z M 2.484375 0 "></path></g></g></g><g fill="#000000" fill-opacity="1"><g transform="translate(742.831601, 67.163742)"><g><path d="M 7.46875 0 L 7.46875 -16.328125 L 0.890625 -16.328125 L 0.890625 -20.75 L 18.765625 -20.75 L 18.765625 -16.328125 L 12.1875 -16.328125 L 12.1875 0 Z M 7.46875 0 "></path></g></g></g><g fill="#000000" fill-opacity="1"><g transform="translate(762.482831, 67.163742)"><g><path d="M 7.90625 0 L 7.90625 -7.265625 L 0.265625 -20.75 L 5.625 -20.75 L 8.203125 -15.953125 L 10.28125 -12.1875 L 12.328125 -15.953125 L 14.875 -20.75 L 20.25 -20.75 L 12.625 -7.328125 L 12.625 0 Z M 7.90625 0 "></path></g></g></g><g fill="#000000" fill-opacity="1"><g transform="translate(389.625432, 608.418168)"><g><path d="M 12.15625 0.421875 C 10.039062 0.421875 8.160156 -0.0351562 6.515625 -0.953125 C 4.878906 -1.878906 3.597656 -3.148438 2.671875 -4.765625 C 1.742188 -6.390625 1.28125 -8.257812 1.28125 -10.375 C 1.28125 -12.488281 1.738281 -14.351562 2.65625 -15.96875 C 3.570312 -17.59375 4.84375 -18.863281 6.46875 -19.78125 C 8.101562 -20.695312 9.96875 -21.15625 12.0625 -21.15625 C 13.738281 -21.15625 15.285156 -20.859375 16.703125 -20.265625 C 18.128906 -19.679688 19.34375 -18.847656 20.34375 -17.765625 C 21.34375 -16.691406 22.050781 -15.421875 22.46875 -13.953125 L 17.40625 -13.953125 C 16.90625 -14.867188 16.195312 -15.578125 15.28125 -16.078125 C 14.363281 -16.578125 13.320312 -16.828125 12.15625 -16.828125 C 10.945312 -16.828125 9.878906 -16.550781 8.953125 -16 C 8.023438 -15.445312 7.296875 -14.6875 6.765625 -13.71875 C 6.242188 -12.75 5.984375 -11.632812 5.984375 -10.375 C 5.984375 -9.125 6.238281 -8.015625 6.75 -7.046875 C 7.269531 -6.085938 7.992188 -5.320312 8.921875 -4.75 C 9.847656 -4.1875 10.945312 -3.90625 12.21875 -3.90625 C 13.738281 -3.90625 15 -4.289062 16 -5.0625 C 17.007812 -5.832031 17.664062 -6.851562 17.96875 -8.125 L 11.234375 -8.125 L 11.234375 -11.765625 L 22.9375 -11.765625 C 23.0625 -9.984375 22.890625 -8.351562 22.421875 -6.875 C 21.960938 -5.394531 21.25 -4.101562 20.28125 -3 C 19.320312 -1.90625 18.15625 -1.0625 16.78125 -0.46875 C 15.414062 0.125 13.875 0.421875 12.15625 0.421875 Z M 12.15625 0.421875 "></path></g></g></g><g fill="#000000" fill-opacity="1"><g transform="translate(413.811552, 608.418168)"><g><path d="M 2.484375 0 L 2.484375 -20.75 L 11.359375 -20.75 C 12.929688 -20.75 14.300781 -20.460938 15.46875 -19.890625 C 16.632812 -19.316406 17.535156 -18.492188 18.171875 -17.421875 C 18.804688 -16.359375 19.125 -15.085938 19.125 -13.609375 C 19.125 -12.085938 18.773438 -10.773438 18.078125 -9.671875 C 17.390625 -8.578125 16.421875 -7.753906 15.171875 -7.203125 L 19.46875 0 L 14.015625 0 L 10.3125 -6.46875 L 7.203125 -6.46875 L 7.203125 0 Z M 7.140625 -10.4375 L 10.734375 -10.4375 C 11.898438 -10.4375 12.789062 -10.707031 13.40625 -11.25 C 14.03125 -11.789062 14.34375 -12.566406 14.34375 -13.578125 C 14.34375 -14.585938 14.03125 -15.363281 13.40625 -15.90625 C 12.789062 -16.445312 11.898438 -16.71875 10.734375 -16.71875 L 7.140625 -16.71875 Z M 7.140625 -10.4375 "></path></g></g></g><g fill="#000000" fill-opacity="1"><g transform="translate(434.678008, 608.418168)"><g><path d="M 0.265625 0 L 8.5 -20.75 L 13.125 -20.75 L 21.375 0 L 16.328125 0 L 14.9375 -3.59375 L 6.703125 -3.59375 L 5.3125 0 Z M 7.90625 -7.296875 L 13.75 -7.296875 L 10.8125 -14.875 Z M 7.90625 -7.296875 "></path></g></g></g><g fill="#000000" fill-opacity="1"><g transform="translate(456.315094, 608.418168)"><g><path d="M 2.484375 0 L 2.484375 -20.75 L 10.609375 -20.75 C 12.285156 -20.75 13.738281 -20.441406 14.96875 -19.828125 C 16.195312 -19.210938 17.148438 -18.34375 17.828125 -17.21875 C 18.503906 -16.09375 18.84375 -14.769531 18.84375 -13.25 C 18.84375 -11.75 18.503906 -10.4375 17.828125 -9.3125 C 17.148438 -8.1875 16.195312 -7.316406 14.96875 -6.703125 C 13.738281 -6.085938 12.285156 -5.78125 10.609375 -5.78125 L 7.203125 -5.78125 L 7.203125 0 Z M 7.171875 -9.84375 L 10.21875 -9.84375 C 11.445312 -9.84375 12.390625 -10.132812 13.046875 -10.71875 C 13.710938 -11.300781 14.046875 -12.132812 14.046875 -13.21875 C 14.046875 -14.300781 13.710938 -15.140625 13.046875 -15.734375 C 12.390625 -16.328125 11.445312 -16.625 10.21875 -16.625 L 7.171875 -16.625 Z M 7.171875 -9.84375 "></path></g></g></g><g fill="#000000" fill-opacity="1"><g transform="translate(476.02559, 608.418168)"><g><path d="M 15.328125 0 L 15.328125 -8.359375 L 7.203125 -8.359375 L 7.203125 0 L 2.484375 0 L 2.484375 -20.75 L 7.203125 -20.75 L 7.203125 -12.78125 L 15.328125 -12.78125 L 15.328125 -20.75 L 20.03125 -20.75 L 20.03125 0 Z M 15.328125 0 "></path></g></g></g><g fill="#000000" fill-opacity="1"><g transform="translate(498.551887, 608.418168)"><g><path d="M 2.484375 0 L 2.484375 -20.75 L 7.203125 -20.75 L 7.203125 0 Z M 2.484375 0 "></path></g></g></g><g fill="#000000" fill-opacity="1"><g transform="translate(508.244126, 608.418168)"><g><path d="M 12 0.421875 C 9.90625 0.421875 8.046875 -0.0351562 6.421875 -0.953125 C 4.804688 -1.878906 3.546875 -3.148438 2.640625 -4.765625 C 1.734375 -6.390625 1.28125 -8.257812 1.28125 -10.375 C 1.28125 -12.488281 1.734375 -14.351562 2.640625 -15.96875 C 3.546875 -17.59375 4.800781 -18.863281 6.40625 -19.78125 C 8.019531 -20.695312 9.875 -21.15625 11.96875 -21.15625 C 13.726562 -21.15625 15.335938 -20.816406 16.796875 -20.140625 C 18.265625 -19.472656 19.5 -18.523438 20.5 -17.296875 C 21.5 -16.078125 22.195312 -14.640625 22.59375 -12.984375 L 17.71875 -12.984375 C 17.320312 -14.128906 16.617188 -15.03125 15.609375 -15.6875 C 14.609375 -16.351562 13.445312 -16.6875 12.125 -16.6875 C 10.957031 -16.6875 9.914062 -16.421875 9 -15.890625 C 8.082031 -15.359375 7.363281 -14.613281 6.84375 -13.65625 C 6.332031 -12.707031 6.078125 -11.613281 6.078125 -10.375 C 6.078125 -9.125 6.332031 -8.023438 6.84375 -7.078125 C 7.363281 -6.128906 8.078125 -5.390625 8.984375 -4.859375 C 9.890625 -4.328125 10.925781 -4.0625 12.09375 -4.0625 C 13.457031 -4.0625 14.648438 -4.410156 15.671875 -5.109375 C 16.703125 -5.816406 17.4375 -6.757812 17.875 -7.9375 L 22.734375 -7.9375 C 22.398438 -6.257812 21.726562 -4.789062 20.71875 -3.53125 C 19.707031 -2.28125 18.457031 -1.304688 16.96875 -0.609375 C 15.476562 0.078125 13.820312 0.421875 12 0.421875 Z M 12 0.421875 "></path></g></g></g><g fill="#000000" fill-opacity="1"><g transform="translate(532.163494, 608.418168)"><g><path d="M 9.71875 0.421875 C 7.976562 0.421875 6.476562 0.132812 5.21875 -0.4375 C 3.96875 -1.007812 3 -1.820312 2.3125 -2.875 C 1.632812 -3.9375 1.296875 -5.179688 1.296875 -6.609375 L 5.921875 -6.609375 C 5.921875 -5.617188 6.257812 -4.847656 6.9375 -4.296875 C 7.625 -3.742188 8.539062 -3.46875 9.6875 -3.46875 C 10.675781 -3.46875 11.457031 -3.660156 12.03125 -4.046875 C 12.601562 -4.429688 12.890625 -4.96875 12.890625 -5.65625 C 12.890625 -6.394531 12.539062 -6.988281 11.84375 -7.4375 C 11.15625 -7.894531 10.082031 -8.28125 8.625 -8.59375 C 6.195312 -9.101562 4.398438 -9.882812 3.234375 -10.9375 C 2.066406 -11.988281 1.484375 -13.351562 1.484375 -15.03125 C 1.484375 -16.925781 2.171875 -18.421875 3.546875 -19.515625 C 4.929688 -20.609375 6.820312 -21.15625 9.21875 -21.15625 C 10.851562 -21.15625 12.273438 -20.875 13.484375 -20.3125 C 14.691406 -19.75 15.625 -18.957031 16.28125 -17.9375 C 16.945312 -16.925781 17.28125 -15.71875 17.28125 -14.3125 L 12.75 -14.3125 C 12.75 -15.238281 12.441406 -15.96875 11.828125 -16.5 C 11.210938 -17.039062 10.363281 -17.3125 9.28125 -17.3125 C 8.289062 -17.3125 7.507812 -17.117188 6.9375 -16.734375 C 6.363281 -16.347656 6.078125 -15.804688 6.078125 -15.109375 C 6.078125 -14.484375 6.390625 -13.953125 7.015625 -13.515625 C 7.648438 -13.078125 8.757812 -12.671875 10.34375 -12.296875 C 12.9375 -11.679688 14.804688 -10.859375 15.953125 -9.828125 C 17.097656 -8.804688 17.671875 -7.476562 17.671875 -5.84375 C 17.671875 -3.882812 16.960938 -2.347656 15.546875 -1.234375 C 14.128906 -0.128906 12.1875 0.421875 9.71875 0.421875 Z M 9.71875 0.421875 "></path></g></g></g><g fill="#000000" fill-opacity="1"><g transform="translate(392.717995, 644.000024)"><g><path d="M 2.484375 0 L 2.484375 -20.75 L 10.703125 -20.75 C 12.890625 -20.75 14.800781 -20.3125 16.4375 -19.4375 C 18.082031 -18.570312 19.359375 -17.359375 20.265625 -15.796875 C 21.179688 -14.234375 21.640625 -12.425781 21.640625 -10.375 C 21.640625 -8.300781 21.179688 -6.488281 20.265625 -4.9375 C 19.359375 -3.382812 18.082031 -2.171875 16.4375 -1.296875 C 14.800781 -0.429688 12.890625 0 10.703125 0 Z M 7.203125 -4.328125 L 10.609375 -4.328125 C 11.835938 -4.328125 12.914062 -4.578125 13.84375 -5.078125 C 14.769531 -5.585938 15.492188 -6.296875 16.015625 -7.203125 C 16.546875 -8.109375 16.8125 -9.164062 16.8125 -10.375 C 16.8125 -11.601562 16.546875 -12.664062 16.015625 -13.5625 C 15.492188 -14.457031 14.765625 -15.15625 13.828125 -15.65625 C 12.890625 -16.164062 11.796875 -16.421875 10.546875 -16.421875 L 7.203125 -16.421875 Z M 7.203125 -4.328125 "></path></g></g></g><g fill="#000000" fill-opacity="1"><g transform="translate(415.599966, 644.000024)"><g><path d="M 2.484375 0 L 2.484375 -20.75 L 16.125 -20.75 L 16.125 -16.78125 L 7.171875 -16.78125 L 7.171875 -12.484375 L 15.328125 -12.484375 L 15.328125 -8.53125 L 7.171875 -8.53125 L 7.171875 -4 L 16.453125 -4 L 16.453125 0 Z M 2.484375 0 "></path></g></g></g><g fill="#000000" fill-opacity="1"><g transform="translate(433.561715, 644.000024)"><g><path d="M 9.71875 0.421875 C 7.976562 0.421875 6.476562 0.132812 5.21875 -0.4375 C 3.96875 -1.007812 3 -1.820312 2.3125 -2.875 C 1.632812 -3.9375 1.296875 -5.179688 1.296875 -6.609375 L 5.921875 -6.609375 C 5.921875 -5.617188 6.257812 -4.847656 6.9375 -4.296875 C 7.625 -3.742188 8.539062 -3.46875 9.6875 -3.46875 C 10.675781 -3.46875 11.457031 -3.660156 12.03125 -4.046875 C 12.601562 -4.429688 12.890625 -4.96875 12.890625 -5.65625 C 12.890625 -6.394531 12.539062 -6.988281 11.84375 -7.4375 C 11.15625 -7.894531 10.082031 -8.28125 8.625 -8.59375 C 6.195312 -9.101562 4.398438 -9.882812 3.234375 -10.9375 C 2.066406 -11.988281 1.484375 -13.351562 1.484375 -15.03125 C 1.484375 -16.925781 2.171875 -18.421875 3.546875 -19.515625 C 4.929688 -20.609375 6.820312 -21.15625 9.21875 -21.15625 C 10.851562 -21.15625 12.273438 -20.875 13.484375 -20.3125 C 14.691406 -19.75 15.625 -18.957031 16.28125 -17.9375 C 16.945312 -16.925781 17.28125 -15.71875 17.28125 -14.3125 L 12.75 -14.3125 C 12.75 -15.238281 12.441406 -15.96875 11.828125 -16.5 C 11.210938 -17.039062 10.363281 -17.3125 9.28125 -17.3125 C 8.289062 -17.3125 7.507812 -17.117188 6.9375 -16.734375 C 6.363281 -16.347656 6.078125 -15.804688 6.078125 -15.109375 C 6.078125 -14.484375 6.390625 -13.953125 7.015625 -13.515625 C 7.648438 -13.078125 8.757812 -12.671875 10.34375 -12.296875 C 12.9375 -11.679688 14.804688 -10.859375 15.953125 -9.828125 C 17.097656 -8.804688 17.671875 -7.476562 17.671875 -5.84375 C 17.671875 -3.882812 16.960938 -2.347656 15.546875 -1.234375 C 14.128906 -0.128906 12.1875 0.421875 9.71875 0.421875 Z M 9.71875 0.421875 "></path></g></g></g><g fill="#000000" fill-opacity="1"><g transform="translate(452.560862, 644.000024)"><g><path d="M 2.484375 0 L 2.484375 -20.75 L 7.203125 -20.75 L 7.203125 0 Z M 2.484375 0 "></path></g></g></g><g fill="#000000" fill-opacity="1"><g transform="translate(462.253102, 644.000024)"><g><path d="M 12.15625 0.421875 C 10.039062 0.421875 8.160156 -0.0351562 6.515625 -0.953125 C 4.878906 -1.878906 3.597656 -3.148438 2.671875 -4.765625 C 1.742188 -6.390625 1.28125 -8.257812 1.28125 -10.375 C 1.28125 -12.488281 1.738281 -14.351562 2.65625 -15.96875 C 3.570312 -17.59375 4.84375 -18.863281 6.46875 -19.78125 C 8.101562 -20.695312 9.96875 -21.15625 12.0625 -21.15625 C 13.738281 -21.15625 15.285156 -20.859375 16.703125 -20.265625 C 18.128906 -19.679688 19.34375 -18.847656 20.34375 -17.765625 C 21.34375 -16.691406 22.050781 -15.421875 22.46875 -13.953125 L 17.40625 -13.953125 C 16.90625 -14.867188 16.195312 -15.578125 15.28125 -16.078125 C 14.363281 -16.578125 13.320312 -16.828125 12.15625 -16.828125 C 10.945312 -16.828125 9.878906 -16.550781 8.953125 -16 C 8.023438 -15.445312 7.296875 -14.6875 6.765625 -13.71875 C 6.242188 -12.75 5.984375 -11.632812 5.984375 -10.375 C 5.984375 -9.125 6.238281 -8.015625 6.75 -7.046875 C 7.269531 -6.085938 7.992188 -5.320312 8.921875 -4.75 C 9.847656 -4.1875 10.945312 -3.90625 12.21875 -3.90625 C 13.738281 -3.90625 15 -4.289062 16 -5.0625 C 17.007812 -5.832031 17.664062 -6.851562 17.96875 -8.125 L 11.234375 -8.125 L 11.234375 -11.765625 L 22.9375 -11.765625 C 23.0625 -9.984375 22.890625 -8.351562 22.421875 -6.875 C 21.960938 -5.394531 21.25 -4.101562 20.28125 -3 C 19.320312 -1.90625 18.15625 -1.0625 16.78125 -0.46875 C 15.414062 0.125 13.875 0.421875 12.15625 0.421875 Z M 12.15625 0.421875 "></path></g></g></g><g fill="#000000" fill-opacity="1"><g transform="translate(486.439222, 644.000024)"><g><path d="M 2.484375 0 L 2.484375 -20.75 L 6.484375 -20.75 L 15.65625 -8.125 L 15.65625 -20.75 L 20.328125 -20.75 L 20.328125 0 L 16.328125 0 L 7.171875 -12.71875 L 7.171875 0 Z M 2.484375 0 "></path></g></g></g><g fill="#000000" fill-opacity="1"><g transform="translate(509.261911, 644.000024)"><g><path d="M 2.484375 0 L 2.484375 -20.75 L 16.125 -20.75 L 16.125 -16.78125 L 7.171875 -16.78125 L 7.171875 -12.484375 L 15.328125 -12.484375 L 15.328125 -8.53125 L 7.171875 -8.53125 L 7.171875 -4 L 16.453125 -4 L 16.453125 0 Z M 2.484375 0 "></path></g></g></g><g fill="#000000" fill-opacity="1"><g transform="translate(527.22366, 644.000024)"><g><path d="M 2.484375 0 L 2.484375 -20.75 L 11.359375 -20.75 C 12.929688 -20.75 14.300781 -20.460938 15.46875 -19.890625 C 16.632812 -19.316406 17.535156 -18.492188 18.171875 -17.421875 C 18.804688 -16.359375 19.125 -15.085938 19.125 -13.609375 C 19.125 -12.085938 18.773438 -10.773438 18.078125 -9.671875 C 17.390625 -8.578125 16.421875 -7.753906 15.171875 -7.203125 L 19.46875 0 L 14.015625 0 L 10.3125 -6.46875 L 7.203125 -6.46875 L 7.203125 0 Z M 7.140625 -10.4375 L 10.734375 -10.4375 C 11.898438 -10.4375 12.789062 -10.707031 13.40625 -11.25 C 14.03125 -11.789062 14.34375 -12.566406 14.34375 -13.578125 C 14.34375 -14.585938 14.03125 -15.363281 13.40625 -15.90625 C 12.789062 -16.445312 11.898438 -16.71875 10.734375 -16.71875 L 7.140625 -16.71875 Z M 7.140625 -10.4375 "></path></g></g></g><g fill="#000000" fill-opacity="1"><g transform="translate(809.247816, 525.084892)"><g><path d="M 9.71875 0.421875 C 7.976562 0.421875 6.476562 0.132812 5.21875 -0.4375 C 3.96875 -1.007812 3 -1.820312 2.3125 -2.875 C 1.632812 -3.9375 1.296875 -5.179688 1.296875 -6.609375 L 5.921875 -6.609375 C 5.921875 -5.617188 6.257812 -4.847656 6.9375 -4.296875 C 7.625 -3.742188 8.539062 -3.46875 9.6875 -3.46875 C 10.675781 -3.46875 11.457031 -3.660156 12.03125 -4.046875 C 12.601562 -4.429688 12.890625 -4.96875 12.890625 -5.65625 C 12.890625 -6.394531 12.539062 -6.988281 11.84375 -7.4375 C 11.15625 -7.894531 10.082031 -8.28125 8.625 -8.59375 C 6.195312 -9.101562 4.398438 -9.882812 3.234375 -10.9375 C 2.066406 -11.988281 1.484375 -13.351562 1.484375 -15.03125 C 1.484375 -16.925781 2.171875 -18.421875 3.546875 -19.515625 C 4.929688 -20.609375 6.820312 -21.15625 9.21875 -21.15625 C 10.851562 -21.15625 12.273438 -20.875 13.484375 -20.3125 C 14.691406 -19.75 15.625 -18.957031 16.28125 -17.9375 C 16.945312 -16.925781 17.28125 -15.71875 17.28125 -14.3125 L 12.75 -14.3125 C 12.75 -15.238281 12.441406 -15.96875 11.828125 -16.5 C 11.210938 -17.039062 10.363281 -17.3125 9.28125 -17.3125 C 8.289062 -17.3125 7.507812 -17.117188 6.9375 -16.734375 C 6.363281 -16.347656 6.078125 -15.804688 6.078125 -15.109375 C 6.078125 -14.484375 6.390625 -13.953125 7.015625 -13.515625 C 7.648438 -13.078125 8.757812 -12.671875 10.34375 -12.296875 C 12.9375 -11.679688 14.804688 -10.859375 15.953125 -9.828125 C 17.097656 -8.804688 17.671875 -7.476562 17.671875 -5.84375 C 17.671875 -3.882812 16.960938 -2.347656 15.546875 -1.234375 C 14.128906 -0.128906 12.1875 0.421875 9.71875 0.421875 Z M 9.71875 0.421875 "></path></g></g></g><g fill="#000000" fill-opacity="1"><g transform="translate(828.246963, 525.084892)"><g><path d="M 12.328125 0.421875 C 10.171875 0.421875 8.257812 -0.0351562 6.59375 -0.953125 C 4.925781 -1.878906 3.625 -3.148438 2.6875 -4.765625 C 1.75 -6.390625 1.28125 -8.257812 1.28125 -10.375 C 1.28125 -12.488281 1.75 -14.351562 2.6875 -15.96875 C 3.625 -17.59375 4.925781 -18.863281 6.59375 -19.78125 C 8.257812 -20.695312 10.171875 -21.15625 12.328125 -21.15625 C 14.503906 -21.15625 16.421875 -20.695312 18.078125 -19.78125 C 19.742188 -18.863281 21.050781 -17.59375 22 -15.96875 C 22.945312 -14.351562 23.421875 -12.488281 23.421875 -10.375 C 23.421875 -8.257812 22.945312 -6.390625 22 -4.765625 C 21.050781 -3.148438 19.742188 -1.878906 18.078125 -0.953125 C 16.421875 -0.0351562 14.503906 0.421875 12.328125 0.421875 Z M 6.078125 -10.375 C 6.078125 -9.125 6.34375 -8.023438 6.875 -7.078125 C 7.40625 -6.128906 8.140625 -5.390625 9.078125 -4.859375 C 10.023438 -4.328125 11.109375 -4.0625 12.328125 -4.0625 C 13.578125 -4.0625 14.671875 -4.328125 15.609375 -4.859375 C 16.546875 -5.390625 17.273438 -6.128906 17.796875 -7.078125 C 18.316406 -8.023438 18.578125 -9.125 18.578125 -10.375 C 18.578125 -11.613281 18.316406 -12.707031 17.796875 -13.65625 C 17.273438 -14.613281 16.546875 -15.359375 15.609375 -15.890625 C 14.671875 -16.421875 13.578125 -16.6875 12.328125 -16.6875 C 11.109375 -16.6875 10.023438 -16.421875 9.078125 -15.890625 C 8.140625 -15.359375 7.40625 -14.613281 6.875 -13.65625 C 6.34375 -12.707031 6.078125 -11.613281 6.078125 -10.375 Z M 6.078125 -10.375 "></path></g></g></g><g fill="#000000" fill-opacity="1"><g transform="translate(852.936962, 525.084892)"><g><path d="M 2.484375 0 L 2.484375 -20.75 L 15.5 -20.75 L 15.5 -16.484375 L 7.203125 -16.484375 L 7.203125 -11.296875 L 14.734375 -11.296875 L 14.734375 -7.140625 L 7.203125 -7.140625 L 7.203125 0 Z M 2.484375 0 "></path></g></g></g><g fill="#000000" fill-opacity="1"><g transform="translate(869.742766, 525.084892)"><g><path d="M 7.46875 0 L 7.46875 -16.328125 L 0.890625 -16.328125 L 0.890625 -20.75 L 18.765625 -20.75 L 18.765625 -16.328125 L 12.1875 -16.328125 L 12.1875 0 Z M 7.46875 0 "></path></g></g></g><g fill="#000000" fill-opacity="1"><g transform="translate(889.393997, 525.084892)"><g><path d="M 6.96875 0 L 0.296875 -20.75 L 5.3125 -20.75 L 7.296875 -14.4375 L 9.484375 -7.625 L 11.859375 -14.4375 L 14.078125 -20.75 L 18.5625 -20.75 L 20.78125 -14.4375 L 23.171875 -7.53125 L 25.40625 -14.4375 L 27.390625 -20.75 L 32.375 -20.75 L 25.671875 0 L 21.046875 0 L 16.328125 -13.421875 L 11.625 0 Z M 6.96875 0 "></path></g></g></g><g fill="#000000" fill-opacity="1"><g transform="translate(922.057113, 525.084892)"><g><path d="M 0.265625 0 L 8.5 -20.75 L 13.125 -20.75 L 21.375 0 L 16.328125 0 L 14.9375 -3.59375 L 6.703125 -3.59375 L 5.3125 0 Z M 7.90625 -7.296875 L 13.75 -7.296875 L 10.8125 -14.875 Z M 7.90625 -7.296875 "></path></g></g></g><g fill="#000000" fill-opacity="1"><g transform="translate(943.694199, 525.084892)"><g><path d="M 2.484375 0 L 2.484375 -20.75 L 11.359375 -20.75 C 12.929688 -20.75 14.300781 -20.460938 15.46875 -19.890625 C 16.632812 -19.316406 17.535156 -18.492188 18.171875 -17.421875 C 18.804688 -16.359375 19.125 -15.085938 19.125 -13.609375 C 19.125 -12.085938 18.773438 -10.773438 18.078125 -9.671875 C 17.390625 -8.578125 16.421875 -7.753906 15.171875 -7.203125 L 19.46875 0 L 14.015625 0 L 10.3125 -6.46875 L 7.203125 -6.46875 L 7.203125 0 Z M 7.140625 -10.4375 L 10.734375 -10.4375 C 11.898438 -10.4375 12.789062 -10.707031 13.40625 -11.25 C 14.03125 -11.789062 14.34375 -12.566406 14.34375 -13.578125 C 14.34375 -14.585938 14.03125 -15.363281 13.40625 -15.90625 C 12.789062 -16.445312 11.898438 -16.71875 10.734375 -16.71875 L 7.140625 -16.71875 Z M 7.140625 -10.4375 "></path></g></g></g><g fill="#000000" fill-opacity="1"><g transform="translate(964.560655, 525.084892)"><g><path d="M 2.484375 0 L 2.484375 -20.75 L 16.125 -20.75 L 16.125 -16.78125 L 7.171875 -16.78125 L 7.171875 -12.484375 L 15.328125 -12.484375 L 15.328125 -8.53125 L 7.171875 -8.53125 L 7.171875 -4 L 16.453125 -4 L 16.453125 0 Z M 2.484375 0 "></path></g></g></g><g fill="#000000" fill-opacity="1"><g transform="translate(818.751368, 560.666748)"><g><path d="M 2.484375 0 L 2.484375 -20.75 L 16.125 -20.75 L 16.125 -16.78125 L 7.171875 -16.78125 L 7.171875 -12.484375 L 15.328125 -12.484375 L 15.328125 -8.53125 L 7.171875 -8.53125 L 7.171875 -4 L 16.453125 -4 L 16.453125 0 Z M 2.484375 0 "></path></g></g></g><g fill="#000000" fill-opacity="1"><g transform="translate(836.713117, 560.666748)"><g><path d="M 2.484375 0 L 2.484375 -20.75 L 6.484375 -20.75 L 15.65625 -8.125 L 15.65625 -20.75 L 20.328125 -20.75 L 20.328125 0 L 16.328125 0 L 7.171875 -12.71875 L 7.171875 0 Z M 2.484375 0 "></path></g></g></g><g fill="#000000" fill-opacity="1"><g transform="translate(859.535806, 560.666748)"><g><path d="M 12.15625 0.421875 C 10.039062 0.421875 8.160156 -0.0351562 6.515625 -0.953125 C 4.878906 -1.878906 3.597656 -3.148438 2.671875 -4.765625 C 1.742188 -6.390625 1.28125 -8.257812 1.28125 -10.375 C 1.28125 -12.488281 1.738281 -14.351562 2.65625 -15.96875 C 3.570312 -17.59375 4.84375 -18.863281 6.46875 -19.78125 C 8.101562 -20.695312 9.96875 -21.15625 12.0625 -21.15625 C 13.738281 -21.15625 15.285156 -20.859375 16.703125 -20.265625 C 18.128906 -19.679688 19.34375 -18.847656 20.34375 -17.765625 C 21.34375 -16.691406 22.050781 -15.421875 22.46875 -13.953125 L 17.40625 -13.953125 C 16.90625 -14.867188 16.195312 -15.578125 15.28125 -16.078125 C 14.363281 -16.578125 13.320312 -16.828125 12.15625 -16.828125 C 10.945312 -16.828125 9.878906 -16.550781 8.953125 -16 C 8.023438 -15.445312 7.296875 -14.6875 6.765625 -13.71875 C 6.242188 -12.75 5.984375 -11.632812 5.984375 -10.375 C 5.984375 -9.125 6.238281 -8.015625 6.75 -7.046875 C 7.269531 -6.085938 7.992188 -5.320312 8.921875 -4.75 C 9.847656 -4.1875 10.945312 -3.90625 12.21875 -3.90625 C 13.738281 -3.90625 15 -4.289062 16 -5.0625 C 17.007812 -5.832031 17.664062 -6.851562 17.96875 -8.125 L 11.234375 -8.125 L 11.234375 -11.765625 L 22.9375 -11.765625 C 23.0625 -9.984375 22.890625 -8.351562 22.421875 -6.875 C 21.960938 -5.394531 21.25 -4.101562 20.28125 -3 C 19.320312 -1.90625 18.15625 -1.0625 16.78125 -0.46875 C 15.414062 0.125 13.875 0.421875 12.15625 0.421875 Z M 12.15625 0.421875 "></path></g></g></g><g fill="#000000" fill-opacity="1"><g transform="translate(883.721926, 560.666748)"><g><path d="M 2.484375 0 L 2.484375 -20.75 L 7.203125 -20.75 L 7.203125 0 Z M 2.484375 0 "></path></g></g></g><g fill="#000000" fill-opacity="1"><g transform="translate(893.414165, 560.666748)"><g><path d="M 2.484375 0 L 2.484375 -20.75 L 6.484375 -20.75 L 15.65625 -8.125 L 15.65625 -20.75 L 20.328125 -20.75 L 20.328125 0 L 16.328125 0 L 7.171875 -12.71875 L 7.171875 0 Z M 2.484375 0 "></path></g></g></g><g fill="#000000" fill-opacity="1"><g transform="translate(916.236854, 560.666748)"><g><path d="M 2.484375 0 L 2.484375 -20.75 L 16.125 -20.75 L 16.125 -16.78125 L 7.171875 -16.78125 L 7.171875 -12.484375 L 15.328125 -12.484375 L 15.328125 -8.53125 L 7.171875 -8.53125 L 7.171875 -4 L 16.453125 -4 L 16.453125 0 Z M 2.484375 0 "></path></g></g></g><g fill="#000000" fill-opacity="1"><g transform="translate(934.198603, 560.666748)"><g><path d="M 2.484375 0 L 2.484375 -20.75 L 16.125 -20.75 L 16.125 -16.78125 L 7.171875 -16.78125 L 7.171875 -12.484375 L 15.328125 -12.484375 L 15.328125 -8.53125 L 7.171875 -8.53125 L 7.171875 -4 L 16.453125 -4 L 16.453125 0 Z M 2.484375 0 "></path></g></g></g><g fill="#000000" fill-opacity="1"><g transform="translate(952.160352, 560.666748)"><g><path d="M 2.484375 0 L 2.484375 -20.75 L 11.359375 -20.75 C 12.929688 -20.75 14.300781 -20.460938 15.46875 -19.890625 C 16.632812 -19.316406 17.535156 -18.492188 18.171875 -17.421875 C 18.804688 -16.359375 19.125 -15.085938 19.125 -13.609375 C 19.125 -12.085938 18.773438 -10.773438 18.078125 -9.671875 C 17.390625 -8.578125 16.421875 -7.753906 15.171875 -7.203125 L 19.46875 0 L 14.015625 0 L 10.3125 -6.46875 L 7.203125 -6.46875 L 7.203125 0 Z M 7.140625 -10.4375 L 10.734375 -10.4375 C 11.898438 -10.4375 12.789062 -10.707031 13.40625 -11.25 C 14.03125 -11.789062 14.34375 -12.566406 14.34375 -13.578125 C 14.34375 -14.585938 14.03125 -15.363281 13.40625 -15.90625 C 12.789062 -16.445312 11.898438 -16.71875 10.734375 -16.71875 L 7.140625 -16.71875 Z M 7.140625 -10.4375 "></path></g></g></g></g></g></svg>