<svg xmlns="http://www.w3.org/2000/svg" xmlns:xlink="http://www.w3.org/1999/xlink" width="167" zoomAndPan="magnify" viewBox="0 0 125.25 129.749996" height="173" preserveAspectRatio="xMidYMid meet" version="1.0"><defs><clipPath id="dd56cde603"><path d="M 10.390625 33.214844 L 13.601562 33.214844 L 13.601562 50.089844 L 10.390625 50.089844 Z M 10.390625 33.214844 " clip-rule="nonzero"/></clipPath><clipPath id="d07d2b3047"><path d="M 10.40625 48.792969 C 11.273438 33.890625 11.394531 33.648438 11.632812 33.441406 C 11.84375 33.289062 12.144531 33.230469 12.382812 33.230469 C 12.625 33.230469 12.925781 33.378906 13.105469 33.53125 C 13.285156 33.679688 13.464844 33.949219 13.492188 34.191406 C 13.523438 34.488281 13.375 35.027344 13.164062 35.269531 C 13.015625 35.480469 12.746094 35.597656 12.503906 35.628906 C 12.265625 35.660156 11.964844 35.660156 11.753906 35.507812 C 11.484375 35.328125 11.183594 34.847656 11.125 34.550781 C 11.066406 34.28125 11.125 34.007812 11.273438 33.800781 C 11.453125 33.558594 11.933594 33.230469 12.265625 33.230469 C 12.59375 33.230469 13.074219 33.46875 13.285156 33.710938 C 13.464844 33.917969 13.464844 34.070312 13.523438 34.460938 C 13.703125 35.71875 13.492188 40.097656 13.34375 42.644531 C 13.222656 44.894531 13.105469 47.894531 12.804688 48.972656 C 12.683594 49.363281 12.625 49.574219 12.445312 49.753906 C 12.265625 49.933594 11.933594 50.082031 11.664062 50.082031 C 11.335938 50.082031 10.855469 49.84375 10.644531 49.601562 C 10.464844 49.394531 10.40625 48.792969 10.40625 48.792969 " clip-rule="nonzero"/></clipPath><clipPath id="65b41326de"><path d="M 0.597656 2 L 92.628906 2 L 92.628906 128.246094 L 0.597656 128.246094 Z M 0.597656 2 " clip-rule="nonzero"/></clipPath><clipPath id="fac3282622"><path d="M 15.023438 33.980469 C 19.042969 36.046875 19.371094 36.078125 19.972656 36.136719 C 20.8125 36.199219 22.011719 36.167969 22.96875 36.019531 C 23.929688 35.867188 24.738281 35.71875 25.757812 35.328125 C 27.136719 34.789062 28.96875 33.648438 30.375 32.71875 C 31.636719 31.878906 32.65625 31.191406 33.824219 30.050781 C 35.324219 28.582031 36.914062 26.363281 38.382812 24.324219 C 39.941406 22.164062 41.710938 19.617188 42.820312 17.425781 C 43.71875 15.628906 44.261719 14.039062 44.738281 12.300781 C 45.191406 10.621094 45.070312 8.132812 45.667969 7.230469 C 45.96875 6.78125 46.417969 6.480469 46.808594 6.480469 C 47.167969 6.480469 47.738281 6.8125 47.917969 7.261719 C 48.25 8.101562 47.230469 10.050781 46.988281 11.878906 C 46.660156 14.429688 46.570312 17.335938 46.480469 21.144531 C 46.328125 27.234375 46.660156 36.109375 46.597656 44.984375 C 46.539062 56.257812 45.667969 73.742188 45.9375 83.308594 C 46.089844 89.035156 46.539062 93.5625 46.957031 97.042969 C 47.230469 99.199219 47.5 100.460938 47.828125 102.257812 C 48.1875 104.148438 48.429688 106.066406 48.996094 108.105469 C 49.65625 110.503906 51.757812 114.3125 51.757812 115.691406 C 51.757812 116.203125 51.636719 116.503906 51.398438 116.742188 C 51.15625 116.980469 50.617188 117.101562 50.316406 117.042969 C 50.046875 117.011719 49.867188 116.890625 49.597656 116.5625 C 48.757812 115.574219 47.617188 111.734375 46.089844 109.066406 C 44.140625 105.648438 41.050781 101.148438 38.503906 97.941406 C 36.34375 95.242188 34.304688 93.113281 32.027344 90.894531 C 29.714844 88.675781 26.957031 86.367188 24.738281 84.597656 C 23 83.1875 21.589844 81.898438 19.910156 80.96875 C 18.382812 80.128906 16.792969 79.378906 15.203125 79.167969 C 13.644531 78.988281 11.875 79.320312 10.464844 79.738281 C 9.234375 80.128906 8.125 80.730469 7.167969 81.449219 C 6.238281 82.136719 5.425781 83.007812 4.796875 83.90625 C 4.167969 84.777344 3.570312 85.675781 3.359375 86.726562 C 3.117188 87.925781 3.328125 89.722656 3.570312 90.714844 C 3.71875 91.375 3.777344 92.003906 4.199219 92.242188 C 4.738281 92.542969 5.789062 92.304688 6.835938 91.824219 C 8.996094 90.804688 12.746094 86.816406 15.382812 84.238281 C 17.871094 81.808594 19.972656 79.648438 22.25 76.859375 C 24.859375 73.652344 27.707031 69.332031 29.988281 65.945312 C 31.90625 63.097656 33.285156 61.207031 35.144531 57.9375 C 37.84375 53.171875 42.582031 41.6875 44.171875 39.855469 C 44.53125 39.4375 44.710938 39.347656 45.039062 39.257812 C 45.371094 39.167969 45.878906 39.136719 46.148438 39.289062 C 46.449219 39.4375 46.597656 39.675781 46.75 40.246094 C 47.347656 42.496094 46.121094 52.839844 46.121094 58.628906 C 46.121094 63.785156 46.417969 70.144531 46.660156 73.230469 C 46.777344 74.671875 46.777344 75.570312 47.019531 76.351562 C 47.167969 76.859375 47.617188 77.160156 47.589844 77.519531 C 47.558594 77.851562 47.230469 78.300781 46.957031 78.449219 C 46.71875 78.597656 46.390625 78.628906 46.121094 78.539062 C 45.789062 78.417969 45.28125 78.03125 45.21875 77.519531 C 45.070312 76.46875 46.898438 74.25 47.738281 72.183594 C 48.816406 69.484375 49.867188 66.183594 50.976562 62.675781 C 52.355469 58.359375 54.277344 50.441406 55.234375 48.101562 C 55.566406 47.324219 55.683594 46.84375 56.042969 46.605469 C 56.34375 46.394531 56.855469 46.394531 57.152344 46.515625 C 57.453125 46.632812 57.664062 46.875 57.875 47.382812 C 58.59375 49.0625 58.714844 56.257812 59.164062 59.617188 C 59.492188 62.015625 59.761719 63.726562 60.183594 65.707031 C 60.601562 67.625 61.773438 70.292969 61.710938 71.3125 C 61.683594 71.703125 61.59375 71.914062 61.414062 72.121094 C 61.230469 72.332031 60.933594 72.480469 60.664062 72.511719 C 60.394531 72.542969 60.0625 72.480469 59.851562 72.332031 C 59.644531 72.183594 59.34375 71.972656 59.34375 71.644531 C 59.375 70.742188 62.613281 68.164062 63.691406 66.753906 C 64.441406 65.765625 64.890625 65.015625 65.402344 64.117188 C 65.910156 63.277344 66.332031 62.558594 66.78125 61.539062 C 67.378906 60.21875 67.917969 57.578125 68.488281 56.859375 C 68.730469 56.558594 68.910156 56.441406 69.179688 56.378906 C 69.449219 56.320312 69.808594 56.320312 70.046875 56.46875 C 70.316406 56.621094 70.527344 56.917969 70.679688 57.398438 C 71.097656 58.6875 70.617188 62.855469 70.859375 65.015625 C 71.039062 66.664062 71.097656 69.183594 71.699219 69.304688 C 72.449219 69.453125 74.546875 64.445312 75.445312 63.515625 C 75.804688 63.125 76.015625 62.917969 76.34375 62.855469 C 76.675781 62.796875 77.183594 62.945312 77.394531 63.1875 C 77.636719 63.457031 77.394531 64.054688 77.636719 64.535156 C 78.023438 65.285156 79.375 66.425781 80.152344 66.875 C 80.695312 67.203125 81.082031 67.324219 81.652344 67.382812 C 82.3125 67.445312 83.121094 67.445312 83.871094 67.054688 C 85.011719 66.453125 86.390625 64.6875 87.351562 63.277344 C 88.339844 61.808594 89.210938 60.128906 89.660156 58.359375 C 90.140625 56.441406 90.289062 54.21875 89.960938 52.152344 C 89.601562 49.902344 88.789062 47.324219 87.378906 45.34375 C 85.851562 43.214844 83.542969 41.175781 80.933594 39.886719 C 77.90625 38.386719 73.585938 37.816406 70.019531 37.457031 C 66.691406 37.097656 63.363281 37.1875 60.183594 37.578125 C 57.09375 37.9375 54.277344 38.507812 51.15625 39.617188 C 47.4375 40.9375 42.910156 43.394531 39.492188 45.375 C 36.613281 47.054688 34.183594 48.554688 31.875 50.503906 C 29.597656 52.421875 27.316406 54.910156 25.667969 57.007812 C 24.320312 58.75 23.148438 60.667969 22.398438 62.078125 C 21.890625 63.035156 21.441406 63.90625 21.351562 64.566406 C 21.289062 64.984375 21.558594 65.316406 21.5 65.585938 C 21.441406 65.765625 21.351562 65.945312 21.171875 66.035156 C 20.902344 66.183594 20.121094 66.335938 19.792969 66.15625 C 19.460938 65.976562 19.132812 65.433594 19.222656 64.925781 C 19.492188 63.578125 23.808594 60.699219 25.878906 58.539062 C 27.828125 56.5 29.328125 54.789062 31.277344 52.300781 C 33.945312 48.914062 37.511719 43.785156 40.183594 39.855469 C 42.519531 36.4375 44.558594 33.410156 46.507812 30.113281 C 48.457031 26.84375 50.378906 23.09375 51.875 20.097656 C 53.074219 17.695312 54.125 15.65625 54.964844 13.558594 C 55.714844 11.699219 56.285156 10.019531 56.765625 8.191406 C 57.246094 6.390625 57.246094 3.601562 57.8125 2.703125 C 58.082031 2.3125 58.382812 2.074219 58.714844 2.042969 C 59.074219 2.015625 59.613281 2.105469 59.941406 2.644531 C 61.710938 5.640625 57.875 32.152344 57.453125 43.125 C 57.152344 50.621094 56.972656 55.390625 57.152344 62.105469 C 57.363281 69.753906 58.144531 79.46875 58.804688 86.546875 C 59.3125 92.003906 59.914062 96.710938 60.574219 100.96875 C 61.113281 104.417969 61.621094 107.328125 62.371094 110.265625 C 63.0625 112.992188 63.992188 115.78125 64.890625 118.03125 C 65.609375 119.832031 66.332031 121.359375 67.109375 122.738281 C 67.769531 123.878906 69.179688 125.769531 69.207031 125.769531 C 69.207031 125.769531 68.640625 125.289062 68.550781 124.71875 C 68.277344 122.980469 70.617188 116.921875 71.429688 113.265625 C 72.148438 109.964844 72.539062 105.257812 73.195312 103.816406 C 73.40625 103.339844 73.617188 103.097656 73.886719 102.949219 C 74.125 102.828125 74.425781 102.796875 74.667969 102.886719 C 74.964844 102.980469 75.386719 103.367188 75.507812 103.636719 C 75.597656 103.878906 75.566406 104.148438 75.507812 104.386719 C 75.445312 104.628906 75.296875 104.898438 75.085938 105.019531 C 74.816406 105.167969 74.277344 105.289062 73.976562 105.167969 C 73.648438 105.046875 73.285156 104.628906 73.195312 104.328125 C 73.105469 104.089844 73.167969 103.789062 73.257812 103.578125 C 73.347656 103.367188 73.558594 103.128906 73.765625 103.007812 C 73.976562 102.886719 74.304688 102.828125 74.546875 102.859375 C 74.785156 102.886719 75.027344 103.007812 75.207031 103.1875 C 75.386719 103.367188 75.507812 103.488281 75.566406 103.878906 C 75.777344 105.257812 74.488281 110.445312 73.738281 113.894531 C 72.925781 117.582031 71.457031 123.160156 70.886719 125.289062 C 70.679688 126.097656 70.707031 126.546875 70.410156 126.996094 C 70.136719 127.417969 69.75 127.898438 69.296875 127.988281 C 68.757812 128.078125 67.949219 127.746094 67.320312 127.269531 C 66.449219 126.578125 65.699219 125.046875 64.949219 123.757812 C 64.109375 122.261719 63.363281 120.671875 62.613281 118.78125 C 61.683594 116.441406 60.753906 113.5625 60.03125 110.746094 C 59.253906 107.714844 58.742188 104.746094 58.171875 101.238281 C 57.484375 96.921875 56.914062 92.183594 56.40625 86.695312 C 55.746094 79.558594 54.964844 69.722656 54.753906 62.046875 C 54.574219 55.300781 54.785156 50.351562 55.054688 43.003906 C 55.445312 32.839844 56.554688 12.960938 57.246094 6.78125 C 57.484375 4.621094 57.425781 3.125 57.964844 2.464844 C 58.234375 2.132812 58.683594 2.015625 59.011719 2.042969 C 59.34375 2.074219 59.761719 2.285156 59.941406 2.644531 C 60.210938 3.183594 59.972656 4.324219 59.851562 5.28125 C 59.703125 6.421875 59.433594 7.589844 59.042969 8.941406 C 58.5625 10.621094 57.902344 12.628906 57.125 14.578125 C 56.253906 16.738281 55.207031 18.804688 53.976562 21.234375 C 52.445312 24.292969 50.496094 28.074219 48.519531 31.402344 C 46.539062 34.757812 44.5 37.789062 42.132812 41.238281 C 39.433594 45.222656 35.832031 50.441406 33.105469 53.890625 C 31.097656 56.441406 29.507812 58.269531 27.496094 60.308594 C 25.457031 62.375 22.160156 65.644531 20.929688 66.183594 C 20.539062 66.363281 20.332031 66.335938 20.0625 66.273438 C 19.820312 66.214844 19.550781 66.035156 19.402344 65.765625 C 19.160156 65.34375 19.011719 64.535156 19.101562 63.847656 C 19.222656 62.917969 19.792969 61.925781 20.390625 60.789062 C 21.230469 59.199219 22.460938 57.1875 23.929688 55.328125 C 25.699219 53.109375 28.097656 50.53125 30.527344 48.523438 C 32.957031 46.515625 35.445312 44.953125 38.441406 43.246094 C 42.011719 41.207031 46.71875 38.628906 50.617188 37.277344 C 53.914062 36.136719 56.882812 35.539062 60.152344 35.179688 C 63.511719 34.789062 66.988281 34.699219 70.558594 35.117188 C 74.394531 35.570312 79.132812 36.257812 82.402344 37.996094 C 85.3125 39.527344 87.921875 41.925781 89.570312 44.414062 C 91.097656 46.722656 91.96875 49.632812 92.328125 52.210938 C 92.660156 54.609375 92.417969 57.160156 91.820312 59.347656 C 91.277344 61.386719 90.289062 63.277344 89.058594 64.925781 C 87.832031 66.574219 86 68.554688 84.441406 69.273438 C 83.273438 69.8125 81.984375 69.785156 80.933594 69.632812 C 80.035156 69.484375 79.164062 69.035156 78.503906 68.585938 C 77.964844 68.222656 77.636719 67.773438 77.214844 67.265625 C 76.707031 66.636719 75.984375 65.675781 75.714844 64.984375 C 75.507812 64.476562 75.324219 63.875 75.445312 63.515625 C 75.535156 63.246094 75.804688 63.007812 76.074219 62.917969 C 76.40625 62.828125 77.125 62.917969 77.394531 63.1875 C 77.664062 63.457031 77.726562 63.964844 77.636719 64.535156 C 77.425781 65.617188 75.777344 67.953125 74.9375 69.003906 C 74.394531 69.664062 74.007812 70.082031 73.4375 70.472656 C 72.867188 70.863281 72.148438 71.34375 71.519531 71.3125 C 70.859375 71.28125 70.078125 70.894531 69.597656 70.261719 C 68.847656 69.273438 68.699219 66.753906 68.460938 65.164062 C 68.25 63.785156 68.21875 62.617188 68.1875 61.296875 C 68.160156 59.949219 68.007812 57.910156 68.371094 57.128906 C 68.550781 56.710938 68.847656 56.46875 69.179688 56.378906 C 69.507812 56.289062 70.046875 56.441406 70.289062 56.648438 C 70.527344 56.859375 70.679688 57.21875 70.679688 57.699219 C 70.679688 58.75 69.6875 60.996094 68.910156 62.675781 C 68.039062 64.535156 66.628906 66.84375 65.550781 68.3125 C 64.769531 69.394531 64.082031 70.503906 63.300781 70.894531 C 62.761719 71.164062 61.921875 70.804688 61.683594 71.042969 C 61.503906 71.222656 61.742188 71.644531 61.59375 71.882812 C 61.441406 72.152344 60.960938 72.453125 60.664062 72.511719 C 60.394531 72.570312 60.0625 72.480469 59.851562 72.332031 C 59.644531 72.183594 59.523438 72.003906 59.34375 71.644531 C 58.894531 70.683594 58.234375 68.015625 57.8125 66.09375 C 57.363281 64.085938 57.0625 62.226562 56.765625 59.828125 C 56.375 56.648438 56.253906 50.5625 55.925781 48.644531 C 55.804688 47.953125 55.476562 47.652344 55.535156 47.292969 C 55.59375 47.023438 55.804688 46.722656 56.042969 46.605469 C 56.375 46.453125 57.125 46.453125 57.425781 46.664062 C 57.695312 46.84375 57.875 47.113281 57.902344 47.652344 C 58.082031 49.753906 54.726562 58.839844 53.257812 63.457031 C 52.085938 67.144531 51.007812 70.625 49.867188 73.292969 C 49.058594 75.210938 48.25 77.308594 47.410156 78.058594 C 46.988281 78.449219 46.480469 78.570312 46.121094 78.539062 C 45.847656 78.507812 45.640625 78.300781 45.429688 78.058594 C 45.160156 77.761719 44.859375 77.308594 44.679688 76.742188 C 44.410156 75.902344 44.378906 74.882812 44.261719 73.351562 C 43.988281 70.171875 43.71875 63.785156 43.71875 58.570312 C 43.71875 52.691406 43.628906 41.714844 44.441406 39.855469 C 44.621094 39.46875 44.769531 39.347656 45.039062 39.257812 C 45.371094 39.136719 46.121094 39.199219 46.390625 39.46875 C 46.660156 39.738281 46.777344 40.546875 46.660156 40.816406 C 46.570312 41.027344 46.210938 40.9375 46 41.175781 C 45.550781 41.6875 45.371094 42.914062 44.738281 44.355469 C 43.332031 47.503906 39.582031 55.089844 37.183594 59.257812 C 35.355469 62.40625 33.882812 64.476562 31.9375 67.355469 C 29.597656 70.804688 26.6875 75.210938 24.019531 78.480469 C 21.679688 81.328125 19.582031 83.578125 16.941406 86.066406 C 14.0625 88.796875 9.957031 93.144531 7.285156 94.101562 C 5.789062 94.640625 4.378906 94.640625 3.359375 94.101562 C 2.339844 93.5625 1.589844 92.183594 1.199219 90.925781 C 0.75 89.453125 0.808594 87.265625 1.199219 85.734375 C 1.53125 84.417969 2.277344 83.277344 3.089844 82.226562 C 3.898438 81.148438 4.917969 80.128906 6.058594 79.320312 C 7.257812 78.480469 8.667969 77.789062 10.195312 77.371094 C 11.90625 76.921875 14.09375 76.652344 15.953125 76.921875 C 17.8125 77.191406 19.609375 78.089844 21.320312 79.050781 C 23.089844 80.039062 24.5 81.328125 26.296875 82.769531 C 28.578125 84.597656 31.425781 86.964844 33.792969 89.273438 C 36.132812 91.554688 38.234375 93.742188 40.453125 96.53125 C 43.0625 99.828125 46.539062 105.078125 48.25 108.015625 C 49.238281 109.726562 49.71875 110.894531 50.316406 112.246094 C 50.855469 113.445312 51.726562 114.882812 51.757812 115.691406 C 51.757812 116.144531 51.636719 116.503906 51.398438 116.742188 C 51.15625 116.980469 50.617188 117.101562 50.316406 117.042969 C 50.046875 117.011719 49.746094 116.742188 49.597656 116.5625 C 49.476562 116.414062 49.328125 116.113281 49.386719 116.050781 C 49.417969 116.023438 49.6875 116.203125 49.71875 116.144531 C 49.867188 115.960938 48.578125 114.3125 48.066406 113.023438 C 47.347656 111.226562 46.6875 108.617188 46.121094 106.15625 C 45.488281 103.398438 44.980469 100.550781 44.558594 97.25 C 44.050781 93.113281 43.691406 89.09375 43.539062 83.277344 C 43.269531 73.683594 44.082031 56.800781 44.199219 44.984375 C 44.289062 34.789062 44.050781 22.105469 44.261719 16.496094 C 44.351562 14.128906 44.378906 13.050781 44.621094 11.460938 C 44.859375 9.992188 45.101562 8.011719 45.667969 7.230469 C 45.96875 6.78125 46.417969 6.480469 46.808594 6.480469 C 47.167969 6.480469 47.707031 6.78125 47.917969 7.261719 C 48.339844 8.25 47.5 11.191406 46.988281 13.078125 C 46.480469 15 45.820312 16.738281 44.859375 18.65625 C 43.691406 20.964844 41.859375 23.574219 40.242188 25.824219 C 38.683594 27.980469 36.914062 30.320312 35.292969 31.910156 C 34.035156 33.140625 32.925781 33.917969 31.546875 34.820312 C 29.988281 35.839844 27.917969 37.066406 26.328125 37.667969 C 25.160156 38.117188 24.167969 38.269531 23.058594 38.417969 C 21.890625 38.566406 20.480469 38.597656 19.460938 38.476562 C 18.679688 38.386719 18.082031 38.238281 17.421875 37.996094 C 16.734375 37.757812 16.074219 37.367188 15.441406 37.007812 C 14.8125 36.648438 13.945312 36.289062 13.582031 35.898438 C 13.375 35.660156 13.222656 35.390625 13.222656 35.117188 C 13.222656 34.789062 13.402344 34.308594 13.675781 34.097656 C 13.972656 33.890625 15.023438 33.980469 15.023438 33.980469 " clip-rule="nonzero"/></clipPath><clipPath id="086c7a4a5a"><path d="M 18.140625 22.074219 L 123.136719 22.074219 L 123.136719 60.457031 L 18.140625 60.457031 Z M 18.140625 22.074219 " clip-rule="nonzero"/></clipPath><clipPath id="9df63cd091"><path d="M 19.042969 58.058594 C 47.796875 49.574219 55.054688 47.203125 64.472656 43.753906 C 77.546875 38.957031 100.816406 28.910156 110.890625 25.402344 C 115.65625 23.753906 119.976562 22.316406 121.535156 22.164062 C 121.953125 22.136719 122.136719 22.136719 122.375 22.253906 C 122.613281 22.375 122.855469 22.613281 122.972656 22.855469 C 123.09375 23.09375 123.125 23.453125 123.003906 23.722656 C 122.882812 24.023438 122.703125 24.175781 122.195312 24.472656 C 119.585938 26.003906 98.085938 32.570312 95.476562 32.988281 C 95.027344 33.050781 94.9375 33.078125 94.699219 32.988281 C 94.398438 32.871094 94.007812 32.511719 93.917969 32.179688 C 93.828125 31.851562 93.949219 31.339844 94.15625 31.070312 C 94.367188 30.832031 94.878906 30.621094 95.207031 30.652344 C 95.535156 30.679688 95.988281 30.980469 96.136719 31.28125 C 96.285156 31.582031 96.285156 32.121094 96.136719 32.421875 C 95.988281 32.71875 95.535156 33.019531 95.207031 33.050781 C 94.878906 33.078125 94.367188 32.871094 94.15625 32.628906 C 93.949219 32.359375 93.828125 31.851562 93.917969 31.519531 C 94.007812 31.191406 94.1875 31.039062 94.699219 30.710938 C 97.277344 29.121094 118.835938 22.433594 121.535156 22.164062 C 122.015625 22.105469 122.136719 22.136719 122.375 22.253906 C 122.613281 22.375 122.855469 22.613281 122.972656 22.855469 C 123.09375 23.09375 123.09375 23.484375 123.003906 23.722656 C 122.914062 23.964844 122.824219 24.113281 122.464844 24.355469 C 121.175781 25.195312 116.257812 26.0625 111.757812 27.652344 C 103.785156 30.472656 89.269531 36.859375 79.105469 40.757812 C 70.316406 44.113281 62.730469 46.964844 54.394531 49.8125 C 45.96875 52.691406 35.234375 56.078125 28.847656 57.9375 C 25.039062 59.046875 21.109375 60.246094 19.671875 60.367188 C 19.25 60.398438 19.070312 60.398438 18.832031 60.277344 C 18.589844 60.15625 18.320312 59.917969 18.230469 59.648438 C 18.140625 59.347656 18.203125 58.808594 18.351562 58.539062 C 18.5 58.296875 19.042969 58.058594 19.042969 58.058594 " clip-rule="nonzero"/></clipPath><clipPath id="be398f72cf"><path d="M 5.640625 62.710938 L 106.699219 62.710938 L 106.699219 92.148438 L 5.640625 92.148438 Z M 5.640625 62.710938 " clip-rule="nonzero"/></clipPath><clipPath id="9cb53d839c"><path d="M 6.566406 89.753906 C 37.332031 79.769531 43.628906 77.820312 50.167969 76.050781 C 56.554688 74.3125 62.613281 72.933594 69.269531 71.402344 C 76.527344 69.722656 85.492188 68.042969 92.027344 66.425781 C 97.035156 65.195312 103.484375 62.917969 105.222656 62.796875 C 105.640625 62.765625 105.761719 62.765625 106.003906 62.886719 C 106.273438 63.035156 106.601562 63.488281 106.660156 63.785156 C 106.722656 64.027344 106.691406 64.324219 106.542969 64.535156 C 106.363281 64.804688 105.941406 65.136719 105.613281 65.164062 C 105.28125 65.195312 104.773438 64.957031 104.5625 64.746094 C 104.382812 64.566406 104.292969 64.265625 104.292969 64.027344 C 104.292969 63.785156 104.351562 63.488281 104.503906 63.277344 C 104.621094 63.066406 104.863281 62.917969 105.101562 62.828125 C 105.34375 62.738281 105.640625 62.738281 105.882812 62.828125 C 106.152344 62.945312 106.542969 63.304688 106.632812 63.636719 C 106.722656 63.964844 106.660156 64.445312 106.390625 64.746094 C 106.003906 65.226562 105.042969 65.375 103.875 65.765625 C 101.472656 66.574219 97.277344 67.625 92.566406 68.765625 C 84.832031 70.652344 69.417969 73.742188 61.773438 75.570312 C 57.183594 76.652344 54.246094 77.460938 50.828125 78.359375 C 47.769531 79.167969 46 79.617188 42.160156 80.757812 C 34.394531 83.097656 10.40625 91.671875 7.257812 92.0625 C 6.777344 92.125 6.65625 92.125 6.417969 92.003906 C 6.148438 91.855469 5.816406 91.433594 5.726562 91.132812 C 5.667969 90.863281 5.726562 90.535156 5.878906 90.292969 C 6.027344 90.054688 6.566406 89.753906 6.566406 89.753906 " clip-rule="nonzero"/></clipPath></defs><g clip-path="url(#dd56cde603)"><g clip-path="url(#d07d2b3047)"><path fill="#005bd4" d="M 9.207031 32.03125 L 14.722656 32.03125 L 14.722656 51.277344 L 9.207031 51.277344 Z M 9.207031 32.03125 " fill-opacity="1" fill-rule="nonzero"/></g></g><g clip-path="url(#65b41326de)"><g clip-path="url(#fac3282622)"><path fill="#005bd4" d="M 0 0.84375 L 93.527344 0.84375 L 93.527344 129.144531 L 0 129.144531 Z M 0 0.84375 " fill-opacity="1" fill-rule="nonzero"/></g></g><g clip-path="url(#086c7a4a5a)"><g clip-path="url(#9df63cd091)"><path fill="#005bd4" d="M 17.03125 20.964844 L 124.246094 20.964844 L 124.246094 61.566406 L 17.03125 61.566406 Z M 17.03125 20.964844 " fill-opacity="1" fill-rule="nonzero"/></g></g><g clip-path="url(#be398f72cf)"><g clip-path="url(#9cb53d839c)"><path fill="#005bd4" d="M 4.527344 61.597656 L 107.8125 61.597656 L 107.8125 93.261719 L 4.527344 93.261719 Z M 4.527344 61.597656 " fill-opacity="1" fill-rule="nonzero"/></g></g></svg>