<svg width="382" height="382" viewBox="0 0 382 382" fill="none" xmlns="http://www.w3.org/2000/svg">
<g clip-path="url(#clip0_6_2)">
<path d="M238.782 159.39C238.623 141.818 252.789 127.429 270.393 127.318C287.981 127.175 302.306 141.325 302.401 158.897C302.56 176.485 288.41 190.81 270.854 190.985C253.25 191.096 238.878 176.93 238.782 159.39ZM254.349 222.834C271.921 222.707 286.309 236.841 286.421 254.46C286.564 272.016 272.462 286.357 254.842 286.469C237.302 286.628 222.881 272.51 222.818 254.922C222.627 237.302 236.824 222.993 254.349 222.834ZM127.318 286.723C127.254 269.183 141.34 254.763 158.912 254.651C176.516 254.492 190.873 268.642 190.984 286.214C191.159 303.818 177.01 318.143 159.39 318.286C141.866 318.382 127.477 304.264 127.318 286.723ZM318.318 34.492C245.308 28.4437 271.459 105.99 203.909 106.706L174.654 82.2898C167.364 -5.84082 275.168 -25.4979 318.318 34.492ZM94.4498 147.739C71.7367 183.377 1.40097 302.895 1.40097 302.895C-4.21762 312.811 8.22919 323.157 16.9197 315.835C16.9197 315.835 121.524 224.887 152.386 196.062C176.771 173.269 176.882 162.86 184.777 125.281L158.037 102.997C122.59 117.561 112.388 119.551 94.4498 147.739ZM295.35 71.2436C328.52 100.212 349.785 142.534 350.151 189.775C350.851 277.476 280.022 349.419 192.258 350.135C131.17 350.47 89.1336 319.814 88.863 295.271L62.3936 318.445C78.4695 353.828 128.957 382.828 192.528 381.985C297.944 381.109 382.812 294.984 381.984 189.52C381.618 143.171 364.747 100.865 337.052 67.9966C321.803 60.1656 303.261 62.76 295.35 71.2436ZM91.6644 101.581C74.8086 70.2249 113.168 47.9416 148.089 38.0415C152.928 23.5255 160.87 10.6489 169.958 1.25803C86.3164 10.6648 25.7375 69.7634 70.2246 126.825C77.5304 115.922 84.5019 107.772 91.6644 101.581Z" fill="black"/>
</g>
<defs>
<clipPath id="clip0_6_2">
<rect width="382" height="382" fill="white"/>
</clipPath>
</defs>
</svg>
