<svg width="382" height="382" viewBox="0 0 382 382" fill="none" xmlns="http://www.w3.org/2000/svg">
<g clip-path="url(#clip0_6_4)">
<path d="M318.333 34.5076C245.324 28.4593 271.475 106.021 203.924 106.737L174.67 82.3213C167.38 -5.8252 275.183 -25.4823 318.333 34.5076ZM94.4655 147.755C71.7524 183.392 1.40079 302.926 1.40079 302.926C-4.2019 312.842 8.24493 323.188 16.9354 315.867C16.9354 315.867 121.54 224.919 152.402 196.094C176.787 173.301 176.898 162.891 184.793 125.312L158.053 103.029C122.606 117.593 112.404 119.566 94.4655 147.755ZM285.45 86.0617C274.849 104.111 257.627 133.446 214.668 137.982C207.76 171.2 205.007 190.507 174.128 219.348C152.275 239.753 95.532 289.524 62.3775 318.493C78.2942 353.637 128.288 382.526 192.544 382C297.976 381.125 382.844 295.016 382 189.536C381.634 143.203 364.794 100.864 337.115 68.0122C311.362 61.184 299.297 62.4732 285.45 86.0617ZM174.797 338.102C157.257 338.198 142.884 324.08 142.709 306.539C142.645 288.983 156.747 274.563 174.319 274.451C191.907 274.308 206.28 288.458 206.376 306.03C206.583 323.634 192.433 337.959 174.797 338.102ZM270.249 306.253C252.709 306.412 238.289 292.294 238.225 274.69C238.034 257.086 252.232 242.777 269.74 242.602C287.344 242.491 301.716 256.625 301.828 274.244C301.971 291.801 287.869 306.141 270.249 306.253ZM302.13 210.785C284.526 210.896 270.138 196.746 270.042 179.19C269.883 161.618 284.049 147.229 301.653 147.118C319.241 146.991 333.566 161.125 333.661 178.713C333.836 196.301 319.67 210.61 302.13 210.785ZM142.47 74.9837C142.136 39.3463 156.509 15.8055 169.242 1.97397L169.974 1.27362C86.3321 10.6804 25.7374 69.779 70.2404 126.84C92.094 94.2588 110.573 87.9717 142.47 74.9837Z" fill="black"/>
</g>
<defs>
<clipPath id="clip0_6_4">
<rect width="382" height="382" fill="white" transform="matrix(-1 0 0 -1 382 382)"/>
</clipPath>
</defs>
</svg>
